<svg width="233" height="86" viewBox="0 0 233 86" fill="none" xmlns="http://www.w3.org/2000/svg">
<path d="M109.896 73.239C109.634 78.8882 105.885 85.8027 97.5541 85.9963H92.3171V59.0479H97.5541C106.221 59.0479 110.182 67.0736 109.896 73.239Z" fill="#263238"/>
<path d="M104.932 73.2392C104.663 78.9744 100.813 86 92.2283 86C83.6434 86 79.7183 77.8775 80.5786 70.5866C81.2274 65.1418 84.2097 59.0481 92.5903 59.0481C101.258 59.0481 105.219 67.0774 104.932 73.2392Z" fill="#37474F"/>
<path d="M223.788 73.2387C223.526 78.8879 219.776 85.8025 211.446 85.996H206.209V59.0477H211.446C220.106 59.0477 224.074 67.0734 223.788 73.2387Z" fill="#263238"/>
<path d="M218.822 73.239C218.553 78.9742 214.703 85.9998 206.119 85.9998C197.534 85.9998 193.609 77.8773 194.469 70.5865C195.118 65.1416 198.1 59.0479 206.484 59.0479C215.148 59.0479 219.109 67.0772 218.822 73.239Z" fill="#37474F"/>
<path d="M216.836 48.5916L228.037 51.2943C228.402 51.405 228.724 51.6236 228.961 51.9212C229.198 52.2188 229.34 52.5814 229.367 52.9611L230.629 69.8083H216.836V48.5916Z" fill="#FFC727"/>
<path opacity="0.1" d="M216.836 48.5916L228.037 51.2943C228.402 51.405 228.724 51.6236 228.961 51.9212C229.198 52.2188 229.34 52.5814 229.367 52.9611L230.629 69.8083H216.836V48.5916Z" fill="black"/>
<path d="M191.099 70.1132H176.499V79.2644H160.369V70.1132C160.614 66.3158 162.304 62.7564 165.091 60.1654C167.878 57.5744 171.551 56.1485 175.356 56.1802C183.797 56.1802 190.712 62.7721 191.099 70.1132Z" fill="#FFC727"/>
<path opacity="0.3" d="M191.099 70.1132H176.499V79.2644H160.369V70.1132C160.614 66.3158 162.304 62.7564 165.091 60.1654C167.878 57.5744 171.551 56.1485 175.356 56.1802C183.797 56.1802 190.712 62.7721 191.099 70.1132Z" fill="black"/>
<path d="M191.429 73.2386C191.167 78.8878 187.418 85.8023 179.088 85.9959H173.844V59.0475H179.08C187.744 59.0475 191.705 67.0733 191.429 73.2386Z" fill="#263238"/>
<path d="M186.455 73.2386C186.19 78.9738 182.337 85.9995 173.755 85.9995C165.174 85.9995 161.242 77.877 162.106 70.5861C162.754 65.1412 165.737 59.0475 174.117 59.0475C182.781 59.0475 186.746 67.0768 186.455 73.2386Z" fill="#37474F"/>
<path d="M182.074 73.0271C181.873 77.1062 179.256 82.1066 173.471 82.1066C167.686 82.1066 165.072 76.3284 165.678 71.1416C166.13 67.2524 168.159 62.9259 173.804 62.9259C179.647 62.9295 182.289 68.6468 182.074 73.0271Z" fill="#C7C7C7"/>
<path d="M172.248 63.8117C172.37 65.4677 172.786 70.7441 173.384 70.7441C173.89 70.7441 175.374 65.7616 175.893 63.9622C175.23 63.7581 174.54 63.6554 173.847 63.6575C173.31 63.6555 172.774 63.7071 172.248 63.8117Z" fill="#263238"/>
<path d="M174.467 71.0594C174.786 71.2028 177.618 68.8227 179.676 67.0376C179.193 66.2353 178.564 65.5303 177.822 64.9586C176.489 67.0017 174.037 70.8766 174.467 71.0594Z" fill="#263238"/>
<path d="M175.006 71.6728C175.149 71.8914 178.193 71.0563 180.938 70.239C180.794 69.5622 180.585 68.9008 180.315 68.2639C177.809 69.6762 174.827 71.4075 175.006 71.6728Z" fill="#263238"/>
<path d="M175.299 72.4178C175.27 72.6651 178.353 73.0164 181.148 73.2853C181.148 73.1849 181.166 73.0917 181.17 72.9913C181.198 72.4448 181.181 71.897 181.12 71.3532C178.31 71.7009 175.324 72.1382 175.299 72.4178Z" fill="#263238"/>
<path d="M180.267 76.7409C180.588 76.0166 180.829 75.2593 180.984 74.4826C178.303 73.737 175.17 72.9341 174.937 73.1922C174.704 73.4503 177.927 75.3823 180.267 76.7409Z" fill="#263238"/>
<path d="M176.942 80.5331C177.935 79.9809 178.783 79.2023 179.419 78.2605C177.695 76.4934 174.759 73.572 174.289 73.7584C173.82 73.9448 176.196 78.981 176.942 80.5331Z" fill="#263238"/>
<path d="M170.908 80.8675C171.719 81.2168 172.595 81.3926 173.478 81.3837C173.838 81.3845 174.197 81.3605 174.553 81.312C174.46 79.9283 174.037 74.1824 173.406 74.1824C172.897 74.1824 171.453 78.9856 170.908 80.8675Z" fill="#263238"/>
<path d="M167.575 77.5117C167.965 78.3256 168.497 79.0636 169.145 79.691C170.482 77.6371 172.637 74.2139 172.228 74.0275C171.93 73.8949 169.536 75.8485 167.575 77.5117Z" fill="#263238"/>
<path d="M166.65 74.4829C166.741 75.0976 166.885 75.7032 167.08 76.293C169.274 75.0492 171.525 73.6943 171.381 73.4541C171.238 73.214 168.98 73.8341 166.65 74.4829Z" fill="#263238"/>
<path d="M166.547 71.8121C166.507 72.3706 166.507 72.9311 166.547 73.4896C168.869 73.1957 171.034 72.8588 171.063 72.615C171.092 72.3713 168.873 72.0845 166.547 71.8121Z" fill="#263238"/>
<path d="M166.661 70.7475C168.912 71.3891 171.163 71.9591 171.364 71.7368C171.564 71.5146 169.213 69.9697 167.159 68.6757C166.93 69.3497 166.764 70.0432 166.661 70.7475Z" fill="#263238"/>
<path d="M167.804 67.1701C169.467 68.8942 171.808 71.2134 172.217 71.0449C172.625 70.8764 170.783 66.5428 169.98 64.729C169.063 65.3495 168.316 66.1884 167.804 67.1701Z" fill="#263238"/>
<path d="M225.648 69.8011H191.072C190.495 62.5855 183.673 56.18 175.35 56.18C171.599 56.1498 167.974 57.5355 165.199 60.0603C162.424 62.5852 160.704 66.0635 160.381 69.8011V79.2642H129.959L120.496 69.8011H65.7429C65.1658 62.5855 58.3444 56.18 50.0212 56.18C46.2702 56.1499 42.6459 57.5357 39.8717 60.0606C37.0976 62.5855 35.3779 66.0639 35.0559 69.8011H2.33289V8.65656C2.33336 7.60685 2.54058 6.5675 2.94272 5.59787C3.34487 4.62824 3.93406 3.74731 4.67665 3.00538C5.41924 2.26346 6.3007 1.67506 7.27069 1.27378C8.24068 0.87251 9.28021 0.666218 10.3299 0.666688L183.881 0.666688C187.038 0.665261 190.086 1.82312 192.445 3.92045C194.805 6.01777 196.313 8.90854 196.681 12.0439L197.04 15.1947H195.448L197.628 35.5906L219.228 39.6411C219.882 39.7742 220.479 40.107 220.936 40.5937C221.393 41.0803 221.688 41.6968 221.78 42.3581L225.648 69.8011Z" fill="#FFC727"/>
<path d="M34.0694 15.5712H6.87012V40.6771H34.0694V15.5712Z" fill="#455A64"/>
<path opacity="0.1" d="M34.0738 15.5713V22.6399L16.0437 40.6736H6.87451V31.4292L22.7288 15.5713H34.0738Z" fill="white"/>
<path opacity="0.1" d="M29.6938 40.6742L34.0741 36.2939V40.6742H29.6938Z" fill="white"/>
<path opacity="0.1" d="M17.7284 15.5713L6.87451 26.4324V25.2961L16.5957 15.5713H17.7284Z" fill="white"/>
<path d="M34.0694 15.5712H6.87012V17.324H34.0694V15.5712Z" fill="#263238"/>
<path d="M34.0694 27.0668H6.87012V28.4576H34.0694V27.0668Z" fill="#FFC727"/>
<path d="M64.627 15.5712H37.4277V40.6771H64.627V15.5712Z" fill="#455A64"/>
<path opacity="0.1" d="M41.1377 15.5712L37.4277 19.2847V15.5712H41.1377Z" fill="white"/>
<path opacity="0.1" d="M60.6805 15.5712L37.4277 38.8239V32.9381L54.7911 15.5712H60.6805Z" fill="white"/>
<path d="M64.627 15.5712H37.4277V17.324H64.627V15.5712Z" fill="#263238"/>
<path d="M64.6265 27.0666H37.4272V28.4574H64.6265V27.0666Z" fill="#FFC727"/>
<path d="M95.1849 15.5712H67.9856V40.6771H95.1849V15.5712Z" fill="#455A64"/>
<path opacity="0.1" d="M77.6213 40.6739L95.1854 23.1098V40.6739H77.6213Z" fill="white"/>
<path d="M95.1849 15.5712H67.9856V17.324H95.1849V15.5712Z" fill="#263238"/>
<path d="M95.1849 27.0668H67.9856V28.4576H95.1849V27.0668Z" fill="#FFC727"/>
<path d="M126.134 15.5714H98.5437V40.6773H126.134V15.5714Z" fill="#455A64"/>
<path opacity="0.1" d="M121.137 15.5713L98.5475 38.168V19.7508L102.723 15.5713H121.137Z" fill="white"/>
<path opacity="0.1" d="M126.138 17.4816V23.3674L108.832 40.6734H102.95L126.138 17.4816Z" fill="white"/>
<path d="M126.134 15.5714H98.5437V17.3242H126.134V15.5714Z" fill="#263238"/>
<path d="M126.133 27.0668H98.5432V28.4576H126.133V27.0668Z" fill="#FFC727"/>
<path d="M197.642 35.5908H158.915V15.5713H195.502L197.642 35.5908Z" fill="#455A64"/>
<path opacity="0.1" d="M196.658 26.4071L187.475 35.5907H169.061L189.081 15.5712H195.501L196.658 26.4071Z" fill="white"/>
<path opacity="0.1" d="M174.687 15.5714L158.919 31.3433V25.4575L168.805 15.5714H174.687Z" fill="white"/>
<path opacity="0.1" d="M164.127 15.5714L158.919 20.7833V19.647L162.995 15.5714H164.127Z" fill="white"/>
<path opacity="0.1" d="M197.154 31.0602L192.627 35.591H191.494L197.043 30.035L197.154 31.0602Z" fill="white"/>
<path opacity="0.1" d="M168.288 15.5713H158.915V35.5908H168.288V15.5713Z" fill="white"/>
<path d="M195.688 17.3205H158.915V15.5713H195.502L195.688 17.3205Z" fill="#263238"/>
<path d="M197.641 35.5913H158.914V33.842H197.451L197.641 35.5913Z" fill="#263238"/>
<path d="M174.937 34.4223V33.494L183.93 27.92L184.077 28.0419L175.897 33.6122V34.4223H174.937Z" fill="#263238"/>
<path d="M186.525 34.4225V33.4941L195.519 27.9202L195.669 28.042L187.49 33.6124V34.4225H186.525Z" fill="#263238"/>
<g opacity="0.2">
<path d="M221.083 45.266H206.057L205.982 44.7176H221.012L221.083 45.266Z" fill="black"/>
<path d="M221.262 46.6104H206.232L206.157 46.062H221.19L221.262 46.6104Z" fill="black"/>
<path d="M221.44 47.9544H206.407L206.339 47.3988H221.365L221.44 47.9544Z" fill="black"/>
<path d="M221.617 49.2909H206.588L206.516 48.7424H221.546L221.617 49.2909Z" fill="black"/>
<path d="M221.796 50.6356H206.766L206.691 50.0836H221.721L221.796 50.6356Z" fill="black"/>
<path d="M221.972 51.9724H206.942L206.87 51.424H221.897L221.972 51.9724Z" fill="black"/>
<path d="M222.147 53.317H207.121L207.046 52.765H222.075L222.147 53.317Z" fill="black"/>
<path d="M222.323 54.6574H207.296L207.221 54.1089H222.255L222.323 54.6574Z" fill="black"/>
<path d="M222.502 55.9979H207.472L207.404 55.4459H222.43L222.502 55.9979Z" fill="black"/>
<path d="M222.681 57.339H207.655L207.58 56.7905H222.606L222.681 57.339Z" fill="black"/>
</g>
<g opacity="0.3">
<path d="M160.03 60.8003C164.008 49.4984 179.601 47.362 187.72 55.463C190.358 58.0161 192.279 61.2176 193.29 64.7469C191.24 59.7931 187.677 55.402 182.773 53.1868C174.611 49.4984 164.091 52.5703 160.03 60.8147V60.8003Z" fill="white"/>
<path d="M180.177 37.1835C186.252 37.8323 192.278 38.8647 198.278 39.9974L199.142 40.1658C199.797 40.2913 200.396 40.6206 200.852 41.1067C201.309 41.5927 201.6 42.2107 201.684 42.8721C201.859 43.7683 202.1 45.0981 202.257 46.1484C202.433 47.256 202.587 48.3672 202.691 49.4927C202.304 48.4174 201.974 47.342 201.648 46.2667C201.322 45.1913 201.031 44.116 200.752 43.0406C200.682 42.5841 200.472 42.1607 200.151 41.8287C199.83 41.4967 199.413 41.2727 198.959 41.1874C198.422 41.087 197.257 40.8827 196.705 40.7824C191.163 39.7429 185.636 38.6317 180.184 37.1799L180.177 37.1835Z" fill="white"/>
</g>
<path opacity="0.3" d="M155.933 41.8204H2.33313V45.2687H155.933V41.8204Z" fill="black"/>
<path opacity="0.3" d="M155.932 51.3875H2.33179V54.8357H155.932V51.3875Z" fill="black"/>
<path d="M50.1136 49.4024C50.1616 49.3461 50.2298 49.3108 50.3035 49.3041C50.3772 49.2974 50.4506 49.3198 50.5079 49.3665C50.7992 49.6111 51.1608 49.7568 51.5403 49.7823C51.7802 49.7864 52.0156 49.7163 52.2142 49.5816C52.2814 49.5406 52.3376 49.4841 52.3782 49.4166C52.4188 49.3492 52.4424 49.273 52.4472 49.1945C52.4481 49.1334 52.4306 49.0734 52.397 49.0224C52.3566 48.9567 52.3013 48.9015 52.2357 48.8611C52.0075 48.7312 51.7571 48.6448 51.4973 48.6066C51.2577 48.5647 51.0242 48.4937 50.8019 48.3951C50.5976 48.3066 50.4234 48.161 50.3 47.9757C50.2167 47.8425 50.1732 47.6883 50.1746 47.5312C50.1804 47.3755 50.2222 47.2232 50.2969 47.0863C50.3715 46.9495 50.4769 46.8319 50.6047 46.7427C50.8796 46.5533 51.2066 46.4544 51.5403 46.4595C51.9662 46.4831 52.3754 46.6328 52.716 46.8896C52.7762 46.931 52.8177 46.9944 52.8318 47.066C52.8459 47.1377 52.8313 47.2121 52.7913 47.2732C52.7716 47.3039 52.7461 47.3304 52.7161 47.3513C52.6861 47.3721 52.6524 47.3867 52.6167 47.3944C52.581 47.4021 52.5442 47.4026 52.5083 47.3959C52.4725 47.3893 52.4383 47.3756 52.4077 47.3556C52.1627 47.1491 51.8596 47.0238 51.5403 46.9972C51.3243 46.9937 51.1125 47.0576 50.9345 47.18C50.8729 47.2176 50.8218 47.2702 50.7861 47.3328C50.7504 47.3955 50.7311 47.4663 50.7302 47.5384C50.7268 47.5915 50.7406 47.6443 50.7696 47.689C50.8079 47.7454 50.8565 47.7941 50.913 47.8323C51.1203 47.9539 51.3491 48.0342 51.5869 48.0689C51.8501 48.1109 52.1067 48.1868 52.3504 48.2947C52.5693 48.3887 52.7562 48.5444 52.888 48.7428C52.9747 48.8802 53.0207 49.0392 53.0207 49.2016C53.0149 49.3678 52.9697 49.5303 52.8886 49.6756C52.8076 49.8208 52.6931 49.9446 52.5547 50.0368C52.2634 50.2422 51.9146 50.3501 51.5582 50.3451C51.0504 50.32 50.5646 50.1299 50.1746 49.8038C50.114 49.7581 50.0736 49.6906 50.0622 49.6155C50.0509 49.5405 50.0693 49.464 50.1136 49.4024Z" fill="#263238"/>
<path d="M53.6656 48.4021C53.676 47.8833 53.8894 47.3892 54.26 47.0259C54.6306 46.6627 55.1289 46.4592 55.6479 46.4593C56.0977 46.4561 56.5357 46.6037 56.8917 46.8787C56.9535 46.9311 56.9933 47.0048 57.0032 47.0851C57.0132 47.1654 56.9926 47.2466 56.9455 47.3125C56.8947 47.3752 56.8219 47.4162 56.7418 47.4268C56.6618 47.4375 56.5808 47.4171 56.5153 47.3698C56.2698 47.1723 55.9629 47.067 55.6479 47.0723C55.286 47.0733 54.9383 47.2131 54.6765 47.463C54.552 47.5857 54.453 47.7319 54.3853 47.8931C54.3176 48.0543 54.2826 48.2273 54.2822 48.4021C54.2819 48.5765 54.3166 48.7492 54.3843 48.91C54.4521 49.0707 54.5514 49.2161 54.6765 49.3377C54.9383 49.5876 55.286 49.7274 55.6479 49.7284C55.9627 49.7325 56.2693 49.6274 56.5153 49.4309C56.5805 49.3983 56.6552 49.3898 56.726 49.407C56.7968 49.4242 56.8593 49.466 56.9022 49.5249C56.9452 49.5837 56.9659 49.6559 56.9607 49.7286C56.9555 49.8013 56.9247 49.8698 56.8738 49.922C56.5178 50.197 56.0798 50.3446 55.63 50.3414C55.1142 50.3386 54.6199 50.1342 54.2528 49.7719C53.8857 49.4095 53.675 48.9179 53.6656 48.4021Z" fill="#263238"/>
<path d="M57.9965 50.0472V46.8605C57.996 46.8213 58.0034 46.7824 58.0181 46.7461C58.0329 46.7098 58.0548 46.6768 58.0826 46.6491C58.1103 46.6214 58.1433 46.5995 58.1796 46.5847C58.2159 46.5699 58.2548 46.5625 58.294 46.563C58.3334 46.5625 58.3724 46.5699 58.409 46.5846C58.4455 46.5994 58.4787 46.6212 58.5067 46.6489C58.5347 46.6765 58.5569 46.7095 58.5721 46.7458C58.5873 46.7822 58.5951 46.8212 58.5951 46.8605V48.1545H59.9931V46.8605C59.9926 46.8213 59.9999 46.7824 60.0147 46.7461C60.0295 46.7098 60.0514 46.6768 60.0791 46.6491C60.1068 46.6214 60.1398 46.5995 60.1761 46.5847C60.2125 46.5699 60.2514 46.5625 60.2906 46.563C60.3299 46.5625 60.369 46.5699 60.4055 46.5846C60.442 46.5994 60.4753 46.6212 60.5033 46.6489C60.5313 46.6765 60.5535 46.7095 60.5687 46.7458C60.5839 46.7822 60.5917 46.8212 60.5917 46.8605V50.0436C60.5912 50.0826 60.583 50.1212 60.5677 50.1572C60.5523 50.1931 60.53 50.2256 60.502 50.2529C60.474 50.2802 60.441 50.3017 60.4047 50.3162C60.3684 50.3307 60.3296 50.338 60.2906 50.3375C60.2515 50.3385 60.2127 50.3316 60.1764 50.3172C60.1401 50.3028 60.1071 50.2812 60.0793 50.2538C60.0515 50.2263 60.0296 50.1936 60.0148 50.1575C59.9999 50.1213 59.9926 50.0826 59.9931 50.0436V48.746H58.5951V50.0436C58.5946 50.0826 58.5865 50.1212 58.5711 50.1572C58.5557 50.1931 58.5334 50.2256 58.5054 50.2529C58.4775 50.2802 58.4444 50.3017 58.4081 50.3162C58.3718 50.3307 58.3331 50.338 58.294 50.3375C58.2553 50.3385 58.2167 50.3316 58.1807 50.3175C58.1446 50.3033 58.1118 50.2821 58.084 50.255C58.0563 50.228 58.0343 50.1956 58.0192 50.1599C58.0042 50.1242 57.9965 50.0859 57.9965 50.0472Z" fill="#263238"/>
<path d="M64.6377 47.036C64.9873 47.4048 65.1823 47.8935 65.1825 48.4017C65.1836 48.9091 64.9884 49.3972 64.6377 49.7638C64.474 49.9438 64.2749 50.088 64.0528 50.1873C63.8307 50.2867 63.5905 50.339 63.3473 50.3409C63.0996 50.3401 62.8548 50.2885 62.6279 50.1892C62.401 50.0899 62.1969 49.9452 62.0282 49.7638C61.6791 49.397 61.4874 48.9081 61.4941 48.4017C61.4888 47.8945 61.6802 47.405 62.0282 47.036C62.1962 46.8539 62.4002 46.7085 62.6272 46.6092C62.8543 46.5099 63.0994 46.4587 63.3473 46.4589C63.5908 46.4594 63.8315 46.511 64.0538 46.6104C64.2761 46.7098 64.475 46.8548 64.6377 47.036ZM64.5696 48.4017C64.5728 48.0525 64.4449 47.7148 64.2111 47.4554C64.1022 47.3348 63.9692 47.2384 63.8207 47.1724C63.6723 47.1064 63.5116 47.0723 63.349 47.0723C63.1865 47.0723 63.0259 47.1064 62.8774 47.1724C62.7289 47.2384 62.5959 47.3348 62.487 47.4554C62.2504 47.7131 62.1221 48.052 62.1285 48.4017C62.1215 48.7484 62.2501 49.0841 62.487 49.3373C62.5946 49.4599 62.7272 49.5582 62.8759 49.6255C63.0245 49.6928 63.1859 49.7277 63.349 49.7277C63.5122 49.7277 63.6736 49.6928 63.8222 49.6255C63.9709 49.5582 64.1035 49.4599 64.2111 49.3373C64.4454 49.0825 64.5736 48.7479 64.5696 48.4017Z" fill="#263238"/>
<path d="M69.1717 47.0367C69.5214 47.4055 69.7164 47.8942 69.7166 48.4024C69.7177 48.9098 69.5224 49.3979 69.1717 49.7645C69.0081 49.9445 68.809 50.0887 68.5869 50.188C68.3648 50.2873 68.1246 50.3396 67.8813 50.3416C67.6337 50.3408 67.3888 50.2891 67.1619 50.1899C66.935 50.0906 66.7309 49.9458 66.5622 49.7645C66.2132 49.3976 66.0215 48.9088 66.0281 48.4024C66.0228 47.8952 66.2142 47.4057 66.5622 47.0367C66.7302 46.8545 66.9342 46.7092 67.1613 46.6099C67.3883 46.5105 67.6335 46.4594 67.8813 46.4596C68.1248 46.46 68.3655 46.5117 68.5878 46.6111C68.8101 46.7105 69.0091 46.8555 69.1717 47.0367ZM69.1 48.4024C69.1036 48.0531 68.9757 47.7153 68.7416 47.4561C68.6339 47.3363 68.5024 47.2404 68.3555 47.1743C68.2086 47.1083 68.0495 47.0736 67.8885 47.0725C67.724 47.072 67.5612 47.1058 67.4106 47.1718C67.26 47.2379 67.1248 47.3347 67.0139 47.4561C66.7782 47.7144 66.65 48.0528 66.6554 48.4024C66.6495 48.7489 66.778 49.0841 67.0139 49.338C67.1245 49.4603 67.2594 49.5582 67.41 49.6255C67.5606 49.6928 67.7235 49.7279 67.8885 49.7287C68.05 49.7262 68.2093 49.6903 68.3561 49.623C68.503 49.5557 68.6343 49.4587 68.7416 49.338C68.9759 49.0832 69.1041 48.7485 69.1 48.4024Z" fill="#263238"/>
<path d="M70.757 50.0472V46.8605C70.7565 46.8216 70.7638 46.783 70.7783 46.7469C70.7929 46.7109 70.8144 46.678 70.8418 46.6504C70.8691 46.6227 70.9017 46.6007 70.9376 46.5857C70.9735 46.5707 71.012 46.563 71.0509 46.563C71.0904 46.5625 71.1297 46.5699 71.1664 46.5846C71.2031 46.5993 71.2366 46.621 71.2649 46.6487C71.2932 46.6763 71.3157 46.7092 71.3313 46.7456C71.3469 46.7819 71.3551 46.821 71.3556 46.8605V49.7281H72.8181C72.897 49.7309 72.9718 49.7642 73.0266 49.8211C73.0814 49.8779 73.112 49.9538 73.112 50.0328C73.1102 50.1102 73.0786 50.1839 73.0239 50.2386C72.9692 50.2934 72.8955 50.3249 72.8181 50.3268H71.0509C70.9754 50.3268 70.9027 50.2978 70.848 50.2458C70.7932 50.1937 70.7607 50.1226 70.757 50.0472Z" fill="#263238"/>
<path d="M75.4122 50.0473V46.8606C75.4122 46.7817 75.4435 46.706 75.4993 46.6503C75.5551 46.5945 75.6308 46.5631 75.7097 46.5631H76.4768C76.6113 46.5631 76.7444 46.5897 76.8686 46.6412C76.9927 46.6928 77.1055 46.7684 77.2004 46.8636C77.2953 46.9588 77.3705 47.0719 77.4216 47.1962C77.4728 47.3206 77.4989 47.4538 77.4984 47.5883C77.4994 47.8095 77.4276 48.0249 77.2941 48.2012C77.5151 48.3303 77.687 48.5291 77.7827 48.7665C77.8784 49.0039 77.8925 49.2664 77.8227 49.5127C77.7529 49.759 77.6033 49.9751 77.3973 50.127C77.1913 50.2789 76.9406 50.358 76.6847 50.3519H75.7097C75.67 50.3519 75.6307 50.344 75.5942 50.3286C75.5576 50.3132 75.5245 50.2907 75.4968 50.2623C75.469 50.2339 75.4473 50.2002 75.4328 50.1633C75.4182 50.1264 75.4112 50.0869 75.4122 50.0473ZM76.0108 48.0292H76.4768C76.5333 48.0282 76.589 48.0162 76.6409 47.9937C76.6927 47.9712 76.7396 47.9387 76.7789 47.8981C76.8181 47.8575 76.849 47.8096 76.8698 47.757C76.8905 47.7045 76.9007 47.6484 76.8998 47.5919C76.9002 47.536 76.8897 47.4806 76.8686 47.4289C76.8476 47.3772 76.8165 47.3301 76.7772 47.2905C76.7378 47.2508 76.691 47.2193 76.6395 47.1978C76.5879 47.1764 76.5326 47.1653 76.4768 47.1653H76.0072L76.0108 48.0292ZM76.0108 49.7426H76.6847C76.8248 49.7313 76.9555 49.6677 77.0509 49.5644C77.1462 49.4611 77.1991 49.3257 77.1991 49.1852C77.1991 49.0446 77.1462 48.9092 77.0509 48.8059C76.9555 48.7026 76.8248 48.639 76.6847 48.6278H76.0072L76.0108 49.7426Z" fill="#263238"/>
<path d="M80.1843 50.341C79.9794 50.3415 79.7764 50.3015 79.587 50.2233C79.3976 50.1451 79.2256 50.0303 79.0807 49.8854C78.9358 49.7405 78.821 49.5684 78.7428 49.379C78.6646 49.1896 78.6245 48.9867 78.625 48.7818V46.8605C78.6245 46.8213 78.6319 46.7824 78.6467 46.746C78.6615 46.7097 78.6834 46.6767 78.7111 46.649C78.7388 46.6213 78.7718 46.5994 78.8081 46.5846C78.8444 46.5698 78.8833 46.5625 78.9225 46.563C79.0018 46.5629 79.0778 46.5942 79.1342 46.6499C79.1906 46.7056 79.2227 46.7812 79.2236 46.8605V48.7782C79.2236 49.033 79.3248 49.2773 79.505 49.4575C79.6852 49.6376 79.9295 49.7388 80.1843 49.7388C80.4391 49.7388 80.6834 49.6376 80.8636 49.4575C81.0437 49.2773 81.1449 49.033 81.1449 48.7782V46.8605C81.1444 46.821 81.1519 46.7818 81.1669 46.7452C81.1819 46.7086 81.2041 46.6755 81.2322 46.6477C81.2604 46.6199 81.2938 46.5981 81.3305 46.5836C81.3672 46.569 81.4065 46.562 81.446 46.563C81.4852 46.5625 81.5241 46.5698 81.5605 46.5846C81.5968 46.5994 81.6298 46.6213 81.6575 46.649C81.6852 46.6767 81.7071 46.7097 81.7219 46.746C81.7367 46.7824 81.744 46.8213 81.7436 46.8605V48.7782C81.744 48.9833 81.704 49.1864 81.6259 49.376C81.5477 49.5656 81.433 49.7379 81.2881 49.8831C81.1433 50.0282 80.9712 50.1434 80.7818 50.222C80.5924 50.3006 80.3894 50.341 80.1843 50.341Z" fill="#263238"/>
<path d="M82.8951 49.4021C82.9431 49.3458 83.0112 49.3105 83.0849 49.3038C83.1586 49.2971 83.232 49.3195 83.2894 49.3662C83.5797 49.6102 83.9399 49.7558 84.3181 49.782C84.5592 49.7862 84.7957 49.7161 84.9956 49.5813C85.0624 49.5402 85.1181 49.4835 85.1581 49.416C85.198 49.3486 85.221 49.2725 85.225 49.1942C85.2272 49.1334 85.211 49.0735 85.1784 49.0221C85.1381 48.9564 85.0828 48.9012 85.0171 48.8608C84.7879 48.7303 84.5362 48.644 84.2751 48.6063C84.0357 48.5639 83.8022 48.4929 83.5797 48.3948C83.3761 48.3055 83.202 48.16 83.0779 47.9754C82.9973 47.8413 82.9551 47.6875 82.956 47.531C82.9618 47.3752 83.0037 47.2229 83.0783 47.0861C83.153 46.9492 83.2583 46.8316 83.3862 46.7424C83.6599 46.5536 83.9856 46.4546 84.3181 46.4592C84.7453 46.4821 85.1559 46.6319 85.4974 46.8893C85.5576 46.9308 85.5992 46.9941 85.6132 47.0658C85.6273 47.1374 85.6128 47.2118 85.5727 47.2729C85.5531 47.3036 85.5275 47.3302 85.4976 47.351C85.4676 47.3718 85.4338 47.3864 85.3981 47.3941C85.3625 47.4018 85.3256 47.4023 85.2898 47.3956C85.2539 47.389 85.2197 47.3753 85.1892 47.3553C84.9428 47.1487 84.6385 47.0235 84.3181 46.9969C84.1033 46.9939 83.8929 47.0578 83.7159 47.1797C83.6543 47.2173 83.6033 47.2699 83.5676 47.3326C83.5318 47.3953 83.5126 47.466 83.5116 47.5381C83.509 47.5907 83.5214 47.6429 83.5475 47.6887C83.5872 47.7451 83.637 47.7937 83.6944 47.8321C83.9017 47.9536 84.1305 48.034 84.3683 48.0686C84.6254 48.1121 84.8759 48.188 85.1139 48.2945C85.3322 48.3895 85.5188 48.5449 85.6516 48.7425C85.7371 48.8802 85.7819 49.0393 85.7806 49.2013C85.7756 49.3673 85.731 49.5297 85.6506 49.6749C85.5701 49.8202 85.4562 49.9442 85.3182 50.0365C85.0256 50.242 84.6756 50.3498 84.3181 50.3448C83.8116 50.3189 83.3272 50.1289 82.9381 49.8035C82.8802 49.7553 82.8434 49.6864 82.8354 49.6115C82.8274 49.5366 82.8488 49.4615 82.8951 49.4021Z" fill="#263238"/>
<g opacity="0.2">
<path d="M156.863 79.2649H155.935V15.8119H132.424V79.2649H131.496V14.8835H156.863V79.2649Z" fill="black"/>
<path d="M144.644 15.3495H143.715V79.265H144.644V15.3495Z" fill="black"/>
</g>
<path d="M142.558 17.0806H133.776V79.2611H142.558V17.0806Z" fill="#455A64"/>
<path d="M142.558 17.0806H133.776V18.8334H142.558V17.0806Z" fill="#263238"/>
<path opacity="0.1" d="M133.777 70.877L142.559 62.095V79.2648H133.777V70.877Z" fill="white"/>
<path opacity="0.1" d="M133.776 50.6025L142.558 41.8205V47.7027L133.776 56.4847V50.6025Z" fill="white"/>
<path opacity="0.1" d="M133.776 44.7925L142.558 36.0104V37.1467L133.776 45.9288V44.7925Z" fill="white"/>
<path d="M154.682 17.0804H145.9V79.2609H154.682V17.0804Z" fill="#37474F"/>
<path d="M154.682 17.084H145.9V79.2645H154.682V17.084Z" fill="#455A64"/>
<path d="M154.682 17.0804H145.9V18.8333H154.682V17.0804Z" fill="#263238"/>
<path opacity="0.1" d="M154.681 49.9721V68.3857L145.899 77.1678V58.7542L154.681 49.9721Z" fill="white"/>
<path opacity="0.1" d="M154.682 29.694V35.5798L145.9 44.3618V38.4761L154.682 29.694Z" fill="white"/>
<path opacity="0.1" d="M154.682 23.8875V25.0237L145.9 33.8058V32.6695L154.682 23.8875Z" fill="white"/>
<path opacity="0.1" d="M154.682 72.4034V73.5397L148.957 79.2642H147.821L154.682 72.4034Z" fill="white"/>
<path d="M156.864 79.2643H131.497V81.1497H156.864V79.2643Z" fill="#263238"/>
<path d="M158.001 81.1462H130.361V83.0317H158.001V81.1462Z" fill="#263238"/>
<path d="M6.87112 60.9515H0.286377V71.0598H6.87112V60.9515Z" fill="#263238"/>
<path d="M125.636 74.9412H5.12122V69.8046H120.417L125.636 74.9412Z" fill="#263238"/>
<path d="M230.203 69.8044H190.383V74.941H230.203V69.8044Z" fill="#263238"/>
<path d="M232.742 64.6647H187.692V69.8013H232.742V64.6647Z" fill="#C7C7C7"/>
<path d="M65.7635 69.8013H35.0334C35.4421 62.6322 41.5752 56.1801 50.0203 56.1801C58.4654 56.1801 65.3584 62.6322 65.7635 69.8013Z" fill="#FFC727"/>
<path opacity="0.3" d="M65.7635 69.8013H35.0334C35.4421 62.6322 41.5752 56.1801 50.0203 56.1801C58.4654 56.1801 65.3584 62.6322 65.7635 69.8013Z" fill="black"/>
<path d="M65.7495 73.239C65.4878 78.8882 61.7384 85.8027 53.408 85.9963H48.171V59.0479H53.4259C62.0718 59.0479 66.0326 67.0736 65.7495 73.239Z" fill="#263238"/>
<path d="M60.7812 73.2386C60.516 78.9738 56.6626 85.9995 48.0813 85.9995C39.5 85.9995 35.5678 77.877 36.4316 70.5861C37.0768 65.1412 40.0627 59.0475 48.4433 59.0475C57.1071 59.0475 61.0716 67.0768 60.7812 73.2386Z" fill="#37474F"/>
<path d="M56.401 73.0274C56.2003 77.1066 53.5836 82.107 47.7982 82.107C42.0128 82.107 39.3997 76.3287 40.0055 71.142C40.4571 67.2528 42.4859 62.9263 48.1316 62.9263C53.9743 62.9299 56.6161 68.6471 56.401 73.0274Z" fill="#C7C7C7"/>
<path d="M46.5758 63.8114C46.6977 65.4675 47.1135 70.7439 47.7121 70.7439C48.2175 70.7439 49.7015 65.7614 50.2213 63.962C49.5583 63.7578 48.8682 63.6551 48.1745 63.6573C47.6378 63.6552 47.1022 63.7069 46.5758 63.8114Z" fill="#263238"/>
<path d="M48.7948 71.0598C49.1139 71.2032 51.9456 68.8231 54.0031 67.038C53.5201 66.2358 52.8916 65.5307 52.1499 64.959C50.8165 67.0022 48.3647 70.877 48.7948 71.0598Z" fill="#263238"/>
<path d="M49.3331 71.6725C49.4765 71.8911 52.5197 71.0559 55.2655 70.2387C55.1213 69.5619 54.9125 68.9005 54.6418 68.2636C52.1326 69.6759 49.1575 71.4072 49.3331 71.6725Z" fill="#263238"/>
<path d="M49.6159 72.4181C49.5872 72.6654 52.6699 73.0167 55.4658 73.2855C55.4658 73.1851 55.4838 73.0919 55.4874 72.9916C55.515 72.4451 55.4982 71.8972 55.4372 71.3535C52.6377 71.7012 49.6518 72.1385 49.6159 72.4181Z" fill="#263238"/>
<path d="M54.5947 76.7412C54.9154 76.0169 55.1558 75.2597 55.3116 74.483C52.6304 73.7374 49.4975 72.9345 49.2645 73.1926C49.0315 73.4507 52.254 75.3827 54.5947 76.7412Z" fill="#263238"/>
<path d="M51.2757 80.5331C52.2686 79.9809 53.1172 79.2023 53.7526 78.2605C52.0285 76.4934 49.0928 73.572 48.6232 73.7584C48.1536 73.9448 50.523 78.981 51.2757 80.5331Z" fill="#263238"/>
<path d="M45.236 80.8667C46.0473 81.216 46.9228 81.3918 47.8061 81.3829C48.1657 81.3837 48.525 81.3597 48.8814 81.3112C48.7882 79.9275 48.3652 74.1816 47.7344 74.1816C47.2254 74.1816 45.7808 78.9848 45.236 80.8667Z" fill="#263238"/>
<path d="M41.9011 77.5115C42.2909 78.3255 42.8225 79.0634 43.4711 79.6909C44.8082 77.637 46.9625 74.2138 46.5538 74.0274C46.2563 73.8948 43.8619 75.8483 41.9011 77.5115Z" fill="#263238"/>
<path d="M40.9773 74.482C41.0681 75.0966 41.212 75.7023 41.4074 76.2921C43.6012 75.0483 45.8522 73.6934 45.7088 73.4532C45.5655 73.213 43.3072 73.8332 40.9773 74.482Z" fill="#263238"/>
<path d="M40.8805 71.8123C40.8411 72.3707 40.8411 72.9313 40.8805 73.4898C43.2033 73.1959 45.3683 72.8589 45.397 72.6152C45.4257 72.3714 43.1997 72.0847 40.8805 71.8123Z" fill="#263238"/>
<path d="M40.9862 70.7472C43.2373 71.3888 45.4883 71.9588 45.6891 71.7365C45.8898 71.5143 43.5384 69.9694 41.4845 68.6754C41.2557 69.3494 41.0889 70.0429 40.9862 70.7472Z" fill="#263238"/>
<path d="M42.1301 67.1707C43.7933 68.8949 46.134 71.2141 46.5427 71.0456C46.9513 70.8771 45.1089 66.5434 44.3059 64.7297C43.3893 65.3501 42.6415 66.189 42.1301 67.1707Z" fill="#263238"/>
<path d="M224.084 66.2022H213.796L213.015 62.0979H223.299L224.084 66.2022Z" fill="white"/>
<path opacity="0.1" d="M6.96289 12.1659C56.5403 11.4489 107.283 11.4489 156.864 12.1659C107.283 12.8828 56.5403 12.8828 6.96289 12.1659Z" fill="black"/>
<path d="M205.542 55.4774H195.065V60.7143H205.542V55.4774Z" fill="#C7C7C7"/>
<path d="M200.302 55.4774H195.065V60.7143H200.302V55.4774Z" fill="#FFC727"/>
<path opacity="0.5" d="M200.302 55.4774H195.065V60.7143H200.302V55.4774Z" fill="white"/>
<path opacity="0.1" d="M199.391 58.0983C199.322 60.4677 195.874 60.4856 195.806 58.0983C195.881 55.7075 199.333 55.729 199.391 58.0983ZM199.391 58.0983C199.353 57.6968 199.166 57.3238 198.868 57.0523C198.57 56.7808 198.181 56.6304 197.778 56.6304C197.374 56.6304 196.985 56.7808 196.687 57.0523C196.389 57.3238 196.202 57.6968 196.164 58.0983C196.202 58.4999 196.389 58.8729 196.687 59.1444C196.985 59.4158 197.374 59.5663 197.778 59.5663C198.181 59.5663 198.57 59.4158 198.868 59.1444C199.166 58.8729 199.353 58.4999 199.391 58.0983Z" fill="black"/>
<path opacity="0.1" d="M204.627 58.098C204.559 60.4674 201.11 60.4853 201.042 58.098C201.121 55.7072 204.569 55.7287 204.627 58.098ZM204.627 58.098C204.589 57.6965 204.402 57.3235 204.104 57.052C203.806 56.7805 203.417 56.6301 203.014 56.6301C202.61 56.6301 202.221 56.7805 201.923 57.052C201.625 57.3235 201.438 57.6965 201.401 58.098C201.438 58.4996 201.625 58.8726 201.923 59.144C202.221 59.4155 202.61 59.566 203.014 59.566C203.417 59.566 203.806 59.4155 204.104 59.144C204.402 58.8726 204.589 58.4996 204.627 58.098Z" fill="black"/>
<path d="M229.968 55.4774H224.731V60.7143H229.968V55.4774Z" fill="#C7C7C7"/>
<path opacity="0.1" d="M229.068 58.0983C229 60.4677 225.548 60.4856 225.483 58.0983C225.562 55.7075 229.014 55.729 229.068 58.0983ZM229.068 58.0983C229.03 57.6968 228.844 57.3238 228.545 57.0523C228.247 56.7808 227.858 56.6304 227.455 56.6304C227.052 56.6304 226.663 56.7808 226.364 57.0523C226.066 57.3238 225.88 57.6968 225.842 58.0983C225.88 58.4999 226.066 58.8729 226.364 59.1444C226.663 59.4158 227.052 59.5663 227.455 59.5663C227.858 59.5663 228.247 59.4158 228.545 59.1444C228.844 58.8729 229.03 58.4999 229.068 58.0983Z" fill="black"/>
<path d="M179.676 42.6345H174.418V44.7171H179.676V42.6345Z" fill="#263238"/>
<path d="M159.252 39.3082H154.757V33.2002H155.474V38.5913H159.252V39.3082Z" fill="#263238"/>
<path d="M160.387 41.0355H158.76V36.8667H160.387V41.0355ZM159.477 40.3186H159.67V37.5836H159.477V40.3186Z" fill="#263238"/>
<path d="M154.796 20.6935H157.664V35.623H154.796C154.504 35.623 154.214 35.5654 153.943 35.4533C153.673 35.3413 153.427 35.177 153.22 34.97C153.013 34.763 152.849 34.5172 152.737 34.2467C152.624 33.9762 152.567 33.6862 152.567 33.3935V22.9303C152.566 22.6369 152.623 22.3462 152.734 22.0749C152.846 21.8035 153.01 21.5569 153.217 21.3491C153.424 21.1413 153.671 20.9764 153.941 20.8639C154.212 20.7514 154.503 20.6935 154.796 20.6935Z" fill="#FFC727"/>
<path opacity="0.1" d="M154.796 20.6935H157.664V35.623H154.796C154.504 35.623 154.214 35.5654 153.943 35.4533C153.673 35.3413 153.427 35.177 153.22 34.97C153.013 34.763 152.849 34.5172 152.737 34.2467C152.624 33.9762 152.567 33.6862 152.567 33.3935V22.9303C152.566 22.6369 152.623 22.3462 152.734 22.0749C152.846 21.8035 153.01 21.5569 153.217 21.3491C153.424 21.1413 153.671 20.9764 153.941 20.8639C154.212 20.7514 154.503 20.6935 154.796 20.6935Z" fill="black"/>
<path opacity="0.3" d="M195.208 13.0196V13.6003H185.598V2.9328C188.189 3.05716 190.632 4.17431 192.422 6.05245C194.211 7.93059 195.209 10.4255 195.208 13.0196Z" fill="black"/>
<path opacity="0.3" d="M173.325 2.92169V13.6H162.858V10.5675C162.858 8.54029 163.663 6.59611 165.096 5.16235C166.529 3.72859 168.473 2.92264 170.5 2.92169L173.325 2.92169Z" fill="black"/>
<path opacity="0.1" d="M185.598 2.93257V13.6001H173.325V2.92181L185.114 2.92181L185.598 2.93257Z" fill="black"/>
<path opacity="0.1" d="M195.207 13.0262V13.6033H195.154C194.906 11.2024 193.805 8.96985 192.052 7.31111C190.298 5.65237 188.008 4.67739 185.597 4.5632H185.113H170.499C169.495 4.5632 168.501 4.76098 167.574 5.14526C166.647 5.52954 165.804 6.09278 165.094 6.8028C164.385 7.51282 163.822 8.35572 163.438 9.28332C163.054 10.2109 162.857 11.2051 162.857 12.209V10.6031C162.857 9.59921 163.054 8.60507 163.438 7.67746C163.822 6.74986 164.385 5.90697 165.094 5.19694C165.804 4.48692 166.647 3.92368 167.574 3.5394C168.501 3.15512 169.495 2.95734 170.499 2.95734L185.113 2.95734C185.276 2.95734 185.437 2.95734 185.597 2.95734C188.185 3.08155 190.626 4.19618 192.415 6.07049C194.204 7.9448 195.204 10.4352 195.207 13.0262Z" fill="black"/>
<path d="M173.737 7.93626C173.784 7.78213 173.873 7.76062 173.931 7.88608C174.049 8.14417 174.257 8.44168 174.447 8.43451C174.522 8.42471 174.592 8.39489 174.652 8.3482C174.711 8.30152 174.757 8.2397 174.784 8.16925C174.861 8.01091 174.901 7.83656 174.898 7.66025C174.9 7.58302 174.892 7.50589 174.873 7.43085C174.858 7.35685 174.831 7.28558 174.794 7.21936C174.709 7.07664 174.585 6.96106 174.436 6.886C174.298 6.82009 174.175 6.72466 174.078 6.60641C173.955 6.44314 173.871 6.25454 173.83 6.0544C173.785 5.86297 173.764 5.66677 173.766 5.47012C173.759 5.11303 173.832 4.75892 173.981 4.4342C174.11 4.19403 174.271 4.07574 174.447 4.07574C174.705 4.07574 174.898 4.4091 175.035 4.6421C175.101 4.80213 175.115 4.97912 175.074 5.14752C175.031 5.31957 174.945 5.36975 174.881 5.25505C174.744 5.0113 174.612 4.79982 174.447 4.79982C174.38 4.80939 174.316 4.83669 174.264 4.87892C174.211 4.92114 174.17 4.97675 174.146 5.03998C174.078 5.17961 174.044 5.33295 174.045 5.48804C174.037 5.55469 174.037 5.62213 174.045 5.68877C174.061 5.75263 174.085 5.81411 174.117 5.87158C174.196 6.00757 174.313 6.11729 174.454 6.18702C174.594 6.25881 174.716 6.36037 174.812 6.48454C174.946 6.65747 175.038 6.85853 175.081 7.0724C175.127 7.27106 175.148 7.47441 175.146 7.67818C175.155 8.05776 175.077 8.43436 174.916 8.77862C174.784 9.03312 174.608 9.18367 174.418 9.18367C174.128 9.18367 173.88 8.79296 173.73 8.46677C173.676 8.2937 173.678 8.1078 173.737 7.93626Z" fill="#263238"/>
<path d="M175.508 6.61319C175.508 5.20806 175.96 4.0646 176.497 4.05743C176.734 4.05743 176.949 4.26175 177.117 4.60945C177.183 4.79241 177.193 4.99076 177.146 5.17939C177.092 5.35861 176.992 5.38729 176.931 5.25825C176.813 5.00016 176.662 4.86754 176.497 4.86754C176.332 4.86754 176.139 5.06468 176.013 5.38012C175.876 5.77644 175.809 6.1938 175.816 6.61319C175.808 7.03384 175.875 7.45259 176.013 7.84985C176.139 8.16528 176.311 8.36243 176.497 8.36243C176.684 8.36243 176.809 8.22622 176.931 7.97172C176.992 7.84985 177.092 7.87852 177.146 8.05058C177.193 8.23799 177.183 8.43524 177.117 8.61693C176.949 8.97538 176.734 9.17253 176.497 9.17253C175.96 9.17253 175.512 8.02907 175.508 6.61319Z" fill="#263238"/>
<path d="M177.668 8.78241V4.58853C177.668 4.36988 177.733 4.19781 177.815 4.19781C177.898 4.19781 177.966 4.36988 177.966 4.58853V6.29476H178.665V4.58853C178.665 4.36988 178.729 4.19781 178.812 4.19781C178.894 4.19781 178.962 4.36988 178.962 4.58853V8.78241C178.962 9.00106 178.898 9.17312 178.812 9.17312C178.726 9.17312 178.665 9.00106 178.665 8.78241V7.07259H177.966V8.77882C177.966 8.99747 177.901 9.16953 177.815 9.16953C177.729 9.16953 177.668 9.00106 177.668 8.78241Z" fill="#263238"/>
<path d="M180.984 4.81803C181.345 5.98561 181.345 7.23495 180.984 8.40254C180.827 8.86494 180.59 9.16245 180.343 9.16245C180.095 9.16245 179.845 8.86494 179.683 8.40254C179.327 7.23426 179.327 5.9863 179.683 4.81803C179.845 4.34845 180.085 4.05811 180.343 4.05811C180.601 4.05811 180.827 4.34845 180.984 4.81803ZM180.949 6.61028C180.955 6.1897 180.893 5.77085 180.766 5.37004C180.655 5.04743 180.504 4.86462 180.343 4.86462C180.181 4.86462 180.02 5.04743 179.905 5.37004C179.776 5.77045 179.714 6.18959 179.723 6.61028C179.713 7.02986 179.775 7.44798 179.905 7.84694C180.02 8.16596 180.171 8.35952 180.343 8.35952C180.515 8.35952 180.655 8.16596 180.766 7.84694C180.894 7.4487 180.956 7.03213 180.949 6.61386V6.61028Z" fill="#263238"/>
<path d="M183.25 4.81748C183.606 5.98575 183.606 7.23371 183.25 8.40199C183.089 8.86439 182.852 9.1619 182.605 9.1619C182.357 9.1619 182.11 8.86439 181.945 8.40199C181.594 7.23301 181.594 5.98645 181.945 4.81748C182.11 4.34791 182.347 4.05756 182.605 4.05756C182.863 4.05756 183.089 4.34791 183.25 4.81748ZM183.214 6.60973C183.221 6.18915 183.159 5.7703 183.031 5.36949C182.917 5.04688 182.766 4.86407 182.605 4.86407C182.443 4.86407 182.282 5.04688 182.167 5.36949C182.04 5.7703 181.978 6.18915 181.985 6.60973C181.977 7.02919 182.039 7.44701 182.167 7.84639C182.282 8.16541 182.433 8.35897 182.605 8.35897C182.777 8.35897 182.917 8.16541 183.031 7.84639C183.159 7.44815 183.221 7.03158 183.214 6.61331V6.60973Z" fill="#263238"/>
<path d="M184.039 8.78228V4.58841C184.039 4.37692 184.103 4.19769 184.186 4.19769C184.268 4.19769 184.34 4.37692 184.34 4.58841V8.3844H185.057C185.136 8.3844 185.204 8.56363 185.204 8.78228C185.204 9.00094 185.136 9.173 185.057 9.173H184.175C184.103 9.173 184.039 8.99377 184.039 8.78228Z" fill="#263238"/>
<path d="M176.987 12.8078V10.037C176.987 9.89357 177.055 9.77887 177.138 9.77887H177.521C177.805 9.77887 178.034 10.1803 178.034 10.6714C178.037 10.8556 178.003 11.0384 177.934 11.2091C178.122 11.451 178.219 11.7521 178.206 12.0586C178.206 12.6178 177.944 13.0659 177.625 13.0659H177.138C177.055 13.0587 176.987 12.944 176.987 12.8078ZM177.288 11.0514H177.521C177.64 11.0514 177.733 10.8793 177.733 10.6714C177.733 10.4635 177.64 10.313 177.521 10.313H177.288V11.0514ZM177.288 12.5461H177.625C177.779 12.5461 177.905 12.331 177.905 12.0586C177.905 11.7862 177.779 11.5783 177.625 11.5747H177.288V12.5461Z" fill="#263238"/>
<path d="M179.379 13.0585C178.945 13.0585 178.598 12.4492 178.598 11.7036V10.0296C178.598 9.88625 178.662 9.77155 178.748 9.77155C178.834 9.77155 178.899 9.88625 178.899 10.0296V11.7036C178.899 12.1624 179.114 12.5388 179.379 12.5388C179.644 12.5388 179.863 12.1624 179.863 11.7036V10.0296C179.863 9.88625 179.931 9.77155 180.014 9.77155C180.096 9.77155 180.16 9.88625 180.16 10.0296V11.7036C180.16 12.4492 179.813 13.0585 179.379 13.0585Z" fill="#263238"/>
<path d="M180.486 12.2413C180.533 12.141 180.623 12.1266 180.684 12.2091C180.739 12.3025 180.813 12.3829 180.902 12.4447C180.991 12.5066 181.093 12.5485 181.2 12.5675C181.265 12.5662 181.33 12.55 181.388 12.5202C181.446 12.4904 181.497 12.4477 181.537 12.3955C181.618 12.294 181.66 12.1668 181.655 12.037C181.657 11.9857 181.648 11.9345 181.63 11.8865C181.613 11.8342 181.585 11.7863 181.547 11.7467C181.45 11.643 181.326 11.5675 181.189 11.528C181.059 11.4891 180.937 11.4258 180.83 11.3416C180.716 11.2474 180.629 11.1234 180.58 10.9832C180.538 10.8596 180.517 10.73 180.519 10.5996C180.513 10.3539 180.588 10.1132 180.734 9.91498C180.787 9.83956 180.857 9.77763 180.939 9.73407C181.02 9.69052 181.111 9.66655 181.203 9.66406C181.321 9.68052 181.433 9.72082 181.534 9.78247C181.635 9.84411 181.723 9.92581 181.791 10.0225C181.824 10.0706 181.845 10.1262 181.852 10.1843C181.859 10.2424 181.852 10.3013 181.831 10.3559C181.788 10.467 181.702 10.5028 181.637 10.4276C181.501 10.2663 181.368 10.1265 181.203 10.1265C181.144 10.1278 181.085 10.1428 181.033 10.1701C180.98 10.1974 180.934 10.2364 180.899 10.2842C180.832 10.369 180.795 10.4737 180.795 10.5817C180.793 10.6269 180.801 10.6719 180.816 10.7143C180.832 10.7593 180.856 10.8007 180.888 10.8362C180.981 10.9324 181.097 11.0028 181.225 11.0405C181.355 11.0845 181.476 11.1513 181.583 11.2377C181.707 11.3418 181.801 11.4765 181.856 11.6284C181.899 11.7566 181.921 11.891 181.92 12.0263C181.922 12.2842 181.84 12.5358 181.687 12.7432C181.63 12.8242 181.555 12.8907 181.468 12.9374C181.381 12.9841 181.284 13.0097 181.185 13.012C181.043 12.9892 180.907 12.9353 180.787 12.8542C180.668 12.773 180.567 12.6666 180.494 12.5424C180.472 12.4953 180.461 12.4443 180.459 12.3926C180.458 12.3409 180.467 12.2894 180.486 12.2413Z" fill="#263238"/>
<path d="M167.772 10.4743C167.772 11.6142 167.133 12.539 166.338 12.539C165.542 12.539 164.904 11.6142 164.904 10.4743C164.904 9.33441 165.546 8.40961 166.338 8.40961C167.13 8.40961 167.772 9.33441 167.772 10.4743Z" fill="#FFC727"/>
<path opacity="0.3" d="M167.22 10.4741C167.22 11.0656 167.041 11.9079 166.327 11.9975C165.094 11.8757 165.015 9.78591 165.843 9.12994C166.671 8.47398 167.277 9.7644 167.22 10.4813V10.4741ZM167.22 10.4741C167.155 8.68188 165.585 8.61019 165.567 10.4741C165.549 12.3381 167.155 12.2664 167.22 10.4741Z" fill="white"/>
<path d="M193.698 10.4744C193.698 11.6143 193.057 12.5391 192.264 12.5391C191.472 12.5391 190.831 11.6143 190.831 10.4744C190.831 9.33454 191.469 8.40973 192.264 8.40973C193.06 8.40973 193.698 9.33454 193.698 10.4744Z" fill="#FFC727"/>
<path opacity="0.3" d="M193.161 10.4743C193.161 11.0657 192.982 11.9081 192.269 11.9977C191.193 11.8938 191.043 10.2987 191.466 9.51723C192.269 8.21605 193.222 9.39535 193.161 10.4743ZM193.161 10.4743C193.097 8.68204 191.527 8.61035 191.512 10.4743C191.498 12.3382 193.1 12.2665 193.161 10.4743Z" fill="white"/>
<path d="M172.048 10.0401C172.048 11.4201 171.274 12.5493 170.321 12.5493C169.367 12.5493 168.593 11.4309 168.593 10.0401C168.593 8.64931 169.367 7.53094 170.321 7.53094C171.274 7.53094 172.048 8.66365 172.048 10.0401Z" fill="#FFC727"/>
<path opacity="0.3" d="M171.399 10.0406C171.378 12.4924 169.177 12.4278 169.105 10.0406C169.177 7.65687 171.378 7.59235 171.399 10.0406ZM171.399 10.0406C171.328 7.83251 169.399 7.77516 169.374 10.0406C169.349 12.306 171.328 12.2486 171.399 10.0406Z" fill="white"/>
<path d="M190.114 10.0401C190.114 11.4201 189.34 12.5493 188.386 12.5493C187.433 12.5493 186.658 11.4309 186.658 10.0401C186.658 8.64931 187.433 7.53094 188.386 7.53094C189.34 7.53094 190.114 8.66365 190.114 10.0401Z" fill="#FFC727"/>
<path opacity="0.3" d="M189.464 10.0403C189.439 12.4921 187.242 12.4276 187.17 10.0403C187.242 7.65662 189.443 7.5921 189.464 10.0403ZM189.464 10.0403C189.393 7.83226 187.464 7.77491 187.439 10.0403C187.414 12.3057 189.393 12.2484 189.464 10.0403Z" fill="white"/>
</svg>
