<svg width="105" height="40" viewBox="0 0 105 40" fill="none" xmlns="http://www.w3.org/2000/svg">
<path d="M49.6479 33.3491C49.53 35.8932 47.8415 39.0071 44.09 39.0943H41.7316V26.9583H44.09C47.9933 26.9583 49.777 30.5726 49.6479 33.3491Z" fill="#263238"/>
<path d="M47.4125 33.3492C47.2914 35.932 45.5577 39.096 41.6915 39.096C37.8254 39.096 36.0578 35.4381 36.4452 32.1547C36.7374 29.7026 38.0805 26.9584 41.8546 26.9584C45.7579 26.9584 47.5416 30.5743 47.4125 33.3492Z" fill="#37474F"/>
<path d="M100.938 33.349C100.82 35.8931 99.1318 39.007 95.3803 39.0942H93.0219V26.9582H95.3803C99.2803 26.9582 101.067 30.5725 100.938 33.349Z" fill="#263238"/>
<path d="M98.702 33.3491C98.581 35.932 96.8472 39.0959 92.9811 39.0959C89.115 39.0959 87.3474 35.438 87.7348 32.1546C88.027 29.7025 89.37 26.9583 93.1458 26.9583C97.0474 26.9583 98.8312 30.5742 98.702 33.3491Z" fill="#37474F"/>
<path d="M97.8075 22.2494L102.852 23.4665C103.016 23.5164 103.161 23.6148 103.268 23.7488C103.375 23.8829 103.439 24.0462 103.451 24.2172L104.019 31.8042H97.8075V22.2494Z" fill="#FFC727"/>
<path opacity="0.1" d="M97.8075 22.2494L102.852 23.4665C103.016 23.5164 103.161 23.6148 103.268 23.7488C103.375 23.8829 103.439 24.0462 103.451 24.2172L104.019 31.8042H97.8075V22.2494Z" fill="black"/>
<path d="M86.2172 31.9415H79.6423V36.0627H72.3782V31.9415C72.4886 30.2314 73.2495 28.6284 74.5046 27.4616C75.7597 26.2947 77.4137 25.6526 79.1274 25.6669C82.9289 25.6669 86.0428 28.6355 86.2172 31.9415Z" fill="#FFC727"/>
<path opacity="0.3" d="M86.2172 31.9415H79.6423V36.0627H72.3782V31.9415C72.4886 30.2314 73.2495 28.6284 74.5046 27.4616C75.7597 26.2947 77.4137 25.6526 79.1274 25.6669C82.9289 25.6669 86.0428 28.6355 86.2172 31.9415Z" fill="black"/>
<path d="M86.3658 33.349C86.248 35.893 84.5595 39.0069 80.8079 39.0941H78.4463V26.9581H80.8047C84.7064 26.9581 86.4901 30.5724 86.3658 33.349Z" fill="#263238"/>
<path d="M84.1259 33.349C84.0064 35.9318 82.2711 39.0957 78.4066 39.0957C74.5421 39.0957 72.7712 35.4378 73.1603 32.1544C73.4524 29.7024 74.7955 26.9581 78.5696 26.9581C82.4713 26.9581 84.2567 30.5741 84.1259 33.349Z" fill="#37474F"/>
<path d="M82.1527 33.2537C82.0623 35.0907 80.8839 37.3426 78.2785 37.3426C75.6731 37.3426 74.4963 34.7404 74.7691 32.4046C74.9725 30.6531 75.8862 28.7047 78.4286 28.7047C81.0599 28.7063 82.2496 31.2811 82.1527 33.2537Z" fill="#C7C7C7"/>
<path d="M77.7278 29.1036C77.7827 29.8494 77.9699 32.2256 78.2395 32.2256C78.4671 32.2256 79.1354 29.9818 79.3695 29.1714C79.0709 29.0795 78.7602 29.0332 78.4477 29.0342C78.206 29.0333 77.9649 29.0565 77.7278 29.1036Z" fill="#263238"/>
<path d="M78.7272 32.3676C78.8709 32.4322 80.1461 31.3603 81.0727 30.5564C80.8552 30.1951 80.5722 29.8776 80.2381 29.6201C79.6376 30.5402 78.5335 32.2853 78.7272 32.3676Z" fill="#263238"/>
<path d="M78.9698 32.6438C79.0343 32.7423 80.4048 32.3661 81.6414 31.9981C81.5765 31.6933 81.4824 31.3954 81.3605 31.1086C80.2321 31.7447 78.8891 32.5243 78.9698 32.6438Z" fill="#263238"/>
<path d="M79.1015 32.9793C79.0886 33.0907 80.4769 33.2489 81.736 33.37C81.736 33.3248 81.7441 33.2828 81.7457 33.2376C81.7581 32.9915 81.7506 32.7448 81.7231 32.4999C80.4575 32.6565 79.1128 32.8534 79.1015 32.9793Z" fill="#263238"/>
<path d="M81.3393 34.9262C81.4837 34.6 81.592 34.259 81.6621 33.9092C80.4546 33.5734 79.0438 33.2118 78.9389 33.3281C78.8339 33.4443 80.2851 34.3144 81.3393 34.9262Z" fill="#263238"/>
<path d="M79.8416 36.634C80.2887 36.3853 80.6709 36.0347 80.9571 35.6106C80.1806 34.8147 78.8585 33.4991 78.6471 33.5831C78.4356 33.667 79.5058 35.935 79.8416 36.634Z" fill="#263238"/>
<path d="M77.1243 36.7846C77.4897 36.9419 77.8839 37.0211 78.2817 37.017C78.4437 37.0174 78.6055 37.0066 78.766 36.9847C78.724 36.3616 78.5335 33.774 78.2494 33.774C78.0202 33.774 77.3696 35.9371 77.1243 36.7846Z" fill="#263238"/>
<path d="M75.6234 35.2733C75.7989 35.6398 76.0384 35.9722 76.3305 36.2548C76.9326 35.3298 77.9027 33.7882 77.7187 33.7042C77.5847 33.6445 76.5064 34.5243 75.6234 35.2733Z" fill="#263238"/>
<path d="M75.2067 33.9093C75.2476 34.1861 75.3124 34.4589 75.4004 34.7245C76.3883 34.1644 77.4021 33.5542 77.3375 33.446C77.2729 33.3379 76.2559 33.6171 75.2067 33.9093Z" fill="#263238"/>
<path d="M75.1602 32.7065C75.1424 32.9581 75.1424 33.2105 75.1602 33.462C76.2062 33.3296 77.1812 33.1779 77.1941 33.0681C77.207 32.9584 76.2078 32.8292 75.1602 32.7065Z" fill="#263238"/>
<path d="M75.2117 32.2271C76.2254 32.5161 77.2392 32.7727 77.3296 32.6726C77.42 32.5726 76.361 31.8768 75.436 31.2941C75.333 31.5976 75.2579 31.9099 75.2117 32.2271Z" fill="#263238"/>
<path d="M75.7266 30.616C76.4756 31.3925 77.5297 32.4369 77.7137 32.361C77.8977 32.2852 77.068 30.3335 76.7064 29.5167C76.2936 29.7961 75.9569 30.1739 75.7266 30.616Z" fill="#263238"/>
<path d="M101.776 31.8009H86.2048C85.945 28.5514 82.873 25.6668 79.1247 25.6668C77.4353 25.6532 75.8029 26.2772 74.5534 27.4142C73.3038 28.5513 72.529 30.1177 72.3836 31.8009V36.0626H58.6834L54.4218 31.8009H29.7641C29.5042 28.5514 26.4322 25.6668 22.6839 25.6668C20.9947 25.6532 19.3625 26.2773 18.1132 27.4144C16.8639 28.5514 16.0894 30.1179 15.9444 31.8009H1.20789V4.26498C1.2081 3.79225 1.30142 3.32419 1.48252 2.88753C1.66362 2.45086 1.92896 2.05414 2.26338 1.72002C2.5978 1.3859 2.99476 1.12092 3.43159 0.94021C3.86841 0.7595 4.33656 0.666598 4.80929 0.66681L82.9667 0.66681C84.3884 0.666167 85.7609 1.1876 86.8235 2.13211C87.8862 3.07663 88.565 4.37846 88.7312 5.79045L88.8926 7.20938H88.1759L89.1573 16.3945L98.8848 18.2186C99.1795 18.2785 99.4483 18.4284 99.6541 18.6476C99.86 18.8668 99.9928 19.1444 100.034 19.4422L101.776 31.8009Z" fill="#FFC727"/>
<path d="M15.5002 7.37891H3.25122V18.6851H15.5002V7.37891Z" fill="#455A64"/>
<path opacity="0.1" d="M15.5021 7.37897V10.5623L7.38244 18.6836H3.25317V14.5204L10.393 7.37897H15.5021Z" fill="white"/>
<path opacity="0.1" d="M13.5297 18.6839L15.5023 16.7112V18.6839H13.5297Z" fill="white"/>
<path opacity="0.1" d="M8.14114 7.37897L3.25317 12.2702V11.7584L7.63103 7.37897H8.14114Z" fill="white"/>
<path d="M15.5002 7.37891H3.25122V8.16828H15.5002V7.37891Z" fill="#263238"/>
<path d="M15.5002 12.5558H3.25122V13.1822H15.5002V12.5558Z" fill="#FFC727"/>
<path d="M29.2615 7.37891H17.0126V18.6851H29.2615V7.37891Z" fill="#455A64"/>
<path opacity="0.1" d="M18.6833 7.37891L17.0126 9.05127V7.37891H18.6833Z" fill="white"/>
<path opacity="0.1" d="M27.4842 7.37891L17.0126 17.8506V15.2L24.832 7.37891H27.4842Z" fill="white"/>
<path d="M29.2615 7.37891H17.0126V8.16828H29.2615V7.37891Z" fill="#263238"/>
<path d="M29.2613 12.5558H17.0123V13.1821H29.2613V12.5558Z" fill="#FFC727"/>
<path d="M43.023 7.37891H30.774V18.6851H43.023V7.37891Z" fill="#455A64"/>
<path opacity="0.1" d="M35.1134 18.6837L43.0233 10.7739V18.6837H35.1134Z" fill="white"/>
<path d="M43.023 7.37891H30.774V8.16828H43.023V7.37891Z" fill="#263238"/>
<path d="M43.023 12.5558H30.774V13.1822H43.023V12.5558Z" fill="#FFC727"/>
<path d="M56.9606 7.37903H44.5356V18.6853H56.9606V7.37903Z" fill="#455A64"/>
<path opacity="0.1" d="M54.7104 7.37897L44.5374 17.5552V9.26119L46.418 7.37897H54.7104Z" fill="white"/>
<path opacity="0.1" d="M56.9624 8.23926V10.8899L49.1688 18.6835H46.5198L56.9624 8.23926Z" fill="white"/>
<path d="M56.9606 7.37903H44.5356V8.1684H56.9606V7.37903Z" fill="#263238"/>
<path d="M56.9603 12.5558H44.5354V13.1822H56.9603V12.5558Z" fill="#FFC727"/>
<path d="M89.1637 16.3946H71.7233V7.37897H88.2L89.1637 16.3946Z" fill="#455A64"/>
<path opacity="0.1" d="M88.7208 12.2588L84.585 16.3945H76.2926L85.3082 7.37891H88.1993L88.7208 12.2588Z" fill="white"/>
<path opacity="0.1" d="M78.8263 7.37903L71.7252 14.4817V11.8311L76.1773 7.37903H78.8263Z" fill="white"/>
<path opacity="0.1" d="M74.0707 7.37903L71.7252 9.72615V9.21443L73.5606 7.37903H74.0707Z" fill="white"/>
<path opacity="0.1" d="M88.944 14.3543L86.9053 16.3947H86.3951L88.894 13.8926L88.944 14.3543Z" fill="white"/>
<path opacity="0.1" d="M75.9445 7.37897H71.7233V16.3946H75.9445V7.37897Z" fill="white"/>
<path d="M88.2839 8.16672H71.7233V7.37897H88.2L88.2839 8.16672Z" fill="#263238"/>
<path d="M89.1633 16.3948H71.7229V15.6071H89.0778L89.1633 16.3948Z" fill="#263238"/>
<path d="M78.9386 15.8684V15.4503L82.9888 12.9401L83.0549 12.995L79.3712 15.5036V15.8684H78.9386Z" fill="#263238"/>
<path d="M84.1575 15.8684V15.4504L88.2076 12.9402L88.2754 12.9951L84.5917 15.5036V15.8684H84.1575Z" fill="#263238"/>
<g opacity="0.2">
<path d="M99.7203 20.7517H92.9533L92.9194 20.5048H99.688L99.7203 20.7517Z" fill="black"/>
<path d="M99.8008 21.3571H93.0322L92.9983 21.1102H99.7685L99.8008 21.3571Z" fill="black"/>
<path d="M99.8812 21.9624H93.111L93.0803 21.7122H99.8473L99.8812 21.9624Z" fill="black"/>
<path d="M99.9609 22.5643H93.1923L93.16 22.3173H99.9286L99.9609 22.5643Z" fill="black"/>
<path d="M100.041 23.1699H93.2728L93.2389 22.9213H100.007L100.041 23.1699Z" fill="black"/>
<path d="M100.121 23.7719H93.352L93.3197 23.5249H100.087L100.121 23.7719Z" fill="black"/>
<path d="M100.199 24.3774H93.4325L93.3986 24.1288H100.167L100.199 24.3774Z" fill="black"/>
<path d="M100.279 24.9811H93.5116L93.4777 24.7341H100.248L100.279 24.9811Z" fill="black"/>
<path d="M100.359 25.5848H93.5907L93.5601 25.3362H100.327L100.359 25.5848Z" fill="black"/>
<path d="M100.44 26.1887H93.6731L93.6392 25.9417H100.406L100.44 26.1887Z" fill="black"/>
</g>
<g opacity="0.3">
<path d="M72.2253 27.7475C74.0172 22.6577 81.0392 21.6956 84.6955 25.3439C85.8835 26.4936 86.7486 27.9354 87.204 29.5248C86.2807 27.2939 84.6761 25.3164 82.4678 24.3188C78.7921 22.6577 74.0543 24.0412 72.2253 27.7539V27.7475Z" fill="white"/>
<path d="M81.2983 17.1118C84.0345 17.404 86.7481 17.8689 89.4503 18.379L89.8394 18.4549C90.1343 18.5114 90.4038 18.6597 90.6093 18.8786C90.8149 19.0975 90.946 19.3758 90.9839 19.6737C91.063 20.0772 91.1711 20.6761 91.2422 21.1491C91.3213 21.6479 91.3907 22.1483 91.4375 22.6552C91.2631 22.1709 91.1146 21.6866 90.9677 21.2024C90.8208 20.7181 90.6901 20.2338 90.5642 19.7495C90.5326 19.544 90.438 19.3533 90.2935 19.2038C90.1489 19.0543 89.9614 18.9534 89.757 18.915C89.5149 18.8698 88.9903 18.7778 88.7417 18.7326C86.246 18.2644 83.7569 17.764 81.3016 17.1102L81.2983 17.1118Z" fill="white"/>
</g>
<path opacity="0.3" d="M70.3804 19.2H1.20801V20.7529H70.3804V19.2Z" fill="black"/>
<path opacity="0.3" d="M70.3798 23.5085H1.2074V25.0614H70.3798V23.5085Z" fill="black"/>
<path d="M22.7256 22.6145C22.7472 22.5892 22.7779 22.5733 22.811 22.5703C22.8442 22.5672 22.8773 22.5773 22.9031 22.5984C23.0343 22.7085 23.1971 22.7741 23.368 22.7856C23.4761 22.7875 23.5821 22.7559 23.6715 22.6952C23.7018 22.6768 23.7271 22.6513 23.7454 22.6209C23.7637 22.5906 23.7743 22.5563 23.7764 22.5209C23.7768 22.4934 23.769 22.4664 23.7538 22.4434C23.7357 22.4138 23.7108 22.3889 23.6812 22.3708C23.5784 22.3122 23.4657 22.2734 23.3487 22.2561C23.2408 22.2373 23.1356 22.2053 23.0355 22.1609C22.9435 22.1211 22.865 22.0555 22.8095 21.972C22.772 21.9121 22.7524 21.8426 22.753 21.7719C22.7556 21.7017 22.7745 21.6331 22.8081 21.5715C22.8417 21.5099 22.8891 21.4569 22.9467 21.4167C23.0705 21.3315 23.2177 21.2869 23.368 21.2892C23.5598 21.2998 23.7441 21.3673 23.8975 21.4829C23.9246 21.5016 23.9433 21.5301 23.9496 21.5624C23.956 21.5947 23.9494 21.6281 23.9314 21.6556C23.9226 21.6695 23.911 21.6814 23.8976 21.6908C23.8841 21.7002 23.8688 21.7068 23.8528 21.7102C23.8367 21.7137 23.8201 21.7139 23.804 21.7109C23.7878 21.7079 23.7724 21.7018 23.7587 21.6928C23.6484 21.5998 23.5118 21.5433 23.368 21.5313C23.2707 21.5298 23.1754 21.5585 23.0952 21.6137C23.0675 21.6306 23.0445 21.6543 23.0284 21.6825C23.0123 21.7108 23.0036 21.7426 23.0032 21.7751C23.0017 21.799 23.0079 21.8228 23.021 21.8429C23.0382 21.8683 23.0601 21.8902 23.0855 21.9075C23.1789 21.9622 23.2819 21.9984 23.389 22.014C23.5075 22.0329 23.6231 22.0671 23.7328 22.1157C23.8315 22.158 23.9156 22.2281 23.975 22.3175C24.014 22.3793 24.0347 22.451 24.0347 22.5241C24.0321 22.599 24.0117 22.6721 23.9753 22.7375C23.9388 22.803 23.8872 22.8587 23.8249 22.9002C23.6937 22.9927 23.5366 23.0413 23.3761 23.0391C23.1474 23.0277 22.9287 22.9422 22.753 22.7953C22.7257 22.7747 22.7075 22.7443 22.7024 22.7105C22.6973 22.6767 22.7056 22.6423 22.7256 22.6145Z" fill="#263238"/>
<path d="M24.3252 22.1641C24.3298 21.9304 24.4259 21.7079 24.5929 21.5443C24.7598 21.3807 24.9842 21.2891 25.2179 21.2891C25.4205 21.2877 25.6177 21.3542 25.778 21.478C25.8058 21.5016 25.8238 21.5348 25.8282 21.571C25.8327 21.6071 25.8234 21.6437 25.8022 21.6733C25.7794 21.7016 25.7466 21.7201 25.7105 21.7249C25.6745 21.7297 25.638 21.7205 25.6085 21.6992C25.498 21.6102 25.3598 21.5628 25.2179 21.5652C25.0549 21.5656 24.8983 21.6286 24.7804 21.7411C24.7243 21.7964 24.6798 21.8622 24.6493 21.9348C24.6188 22.0074 24.603 22.0853 24.6028 22.1641C24.6027 22.2426 24.6183 22.3204 24.6488 22.3928C24.6793 22.4651 24.7241 22.5307 24.7804 22.5854C24.8983 22.6979 25.0549 22.7609 25.2179 22.7613C25.3597 22.7632 25.4977 22.7158 25.6085 22.6274C25.6379 22.6127 25.6715 22.6089 25.7034 22.6166C25.7353 22.6244 25.7634 22.6432 25.7828 22.6697C25.8021 22.6962 25.8114 22.7287 25.8091 22.7614C25.8068 22.7942 25.7929 22.825 25.77 22.8485C25.6096 22.9724 25.4124 23.0389 25.2098 23.0374C24.9775 23.0362 24.7549 22.9441 24.5896 22.7809C24.4243 22.6177 24.3294 22.3963 24.3252 22.1641Z" fill="#263238"/>
<path d="M26.2755 22.9049V21.4698C26.2753 21.4522 26.2786 21.4346 26.2853 21.4183C26.2919 21.4019 26.3018 21.3871 26.3143 21.3746C26.3268 21.3621 26.3416 21.3522 26.358 21.3456C26.3743 21.3389 26.3919 21.3356 26.4095 21.3358C26.4272 21.3356 26.4448 21.3389 26.4613 21.3456C26.4777 21.3522 26.4927 21.362 26.5053 21.3745C26.5179 21.387 26.5279 21.4018 26.5348 21.4182C26.5416 21.4345 26.5451 21.4521 26.5451 21.4698V22.0526H27.1747V21.4698C27.1744 21.4522 27.1778 21.4346 27.1844 21.4183C27.1911 21.4019 27.2009 21.3871 27.2134 21.3746C27.2259 21.3621 27.2408 21.3522 27.2571 21.3456C27.2735 21.3389 27.291 21.3356 27.3086 21.3358C27.3264 21.3356 27.344 21.3389 27.3604 21.3456C27.3769 21.3522 27.3918 21.362 27.4044 21.3745C27.417 21.387 27.4271 21.4018 27.4339 21.4182C27.4407 21.4345 27.4442 21.4521 27.4442 21.4698V22.9033C27.444 22.9209 27.4404 22.9382 27.4334 22.9544C27.4265 22.9706 27.4165 22.9852 27.4039 22.9975C27.3913 23.0098 27.3764 23.0195 27.36 23.0261C27.3437 23.0326 27.3262 23.0359 27.3086 23.0356C27.2911 23.0361 27.2736 23.033 27.2572 23.0265C27.2409 23.02 27.226 23.0103 27.2135 22.9979C27.201 22.9856 27.1911 22.9708 27.1844 22.9546C27.1778 22.9383 27.1744 22.9208 27.1747 22.9033V22.3189H26.5451V22.9033C26.5449 22.9209 26.5412 22.9382 26.5343 22.9544C26.5274 22.9706 26.5173 22.9852 26.5047 22.9975C26.4921 23.0098 26.4772 23.0195 26.4609 23.0261C26.4446 23.0326 26.4271 23.0359 26.4095 23.0356C26.3921 23.0361 26.3747 23.033 26.3585 23.0266C26.3422 23.0202 26.3274 23.0107 26.315 22.9985C26.3025 22.9863 26.2925 22.9718 26.2858 22.9557C26.279 22.9396 26.2755 22.9223 26.2755 22.9049Z" fill="#263238"/>
<path d="M29.2664 21.5488C29.4238 21.7149 29.5116 21.935 29.5117 22.1639C29.5122 22.3924 29.4243 22.6122 29.2664 22.7773C29.1927 22.8583 29.103 22.9233 29.003 22.968C28.903 23.0127 28.7948 23.0363 28.6852 23.0372C28.5737 23.0368 28.4634 23.0135 28.3613 22.9688C28.2591 22.9241 28.1672 22.8589 28.0912 22.7773C27.934 22.6121 27.8477 22.3919 27.8507 22.1639C27.8483 21.9355 27.9345 21.715 28.0912 21.5488C28.1669 21.4668 28.2587 21.4013 28.361 21.3566C28.4632 21.3119 28.5736 21.2888 28.6852 21.2889C28.7949 21.2891 28.9033 21.3124 29.0034 21.3572C29.1035 21.4019 29.1931 21.4672 29.2664 21.5488ZM29.2357 22.1639C29.2371 22.0066 29.1795 21.8545 29.0743 21.7377C29.0252 21.6834 28.9653 21.64 28.8985 21.6102C28.8316 21.5805 28.7592 21.5652 28.686 21.5652C28.6129 21.5652 28.5405 21.5805 28.4736 21.6102C28.4067 21.64 28.3468 21.6834 28.2978 21.7377C28.1913 21.8538 28.1335 22.0064 28.1364 22.1639C28.1332 22.32 28.1911 22.4712 28.2978 22.5852C28.3463 22.6404 28.406 22.6847 28.4729 22.715C28.5399 22.7453 28.6125 22.761 28.686 22.761C28.7595 22.761 28.8322 22.7453 28.8991 22.715C28.9661 22.6847 29.0258 22.6404 29.0743 22.5852C29.1798 22.4704 29.2375 22.3197 29.2357 22.1639Z" fill="#263238"/>
<path d="M31.3082 21.5491C31.4657 21.7152 31.5535 21.9353 31.5536 22.1642C31.5541 22.3927 31.4662 22.6125 31.3082 22.7776C31.2345 22.8586 31.1449 22.9236 31.0448 22.9683C30.9448 23.013 30.8367 23.0366 30.7271 23.0375C30.6156 23.0371 30.5053 23.0138 30.4031 22.9691C30.3009 22.9244 30.209 22.8592 30.1331 22.7776C29.9759 22.6124 29.8895 22.3922 29.8925 22.1642C29.8901 21.9358 29.9763 21.7153 30.1331 21.5491C30.2087 21.4671 30.3006 21.4016 30.4028 21.3569C30.5051 21.3122 30.6155 21.2891 30.7271 21.2892C30.8368 21.2894 30.9452 21.3127 31.0453 21.3575C31.1454 21.4022 31.235 21.4675 31.3082 21.5491ZM31.2759 22.1642C31.2776 22.0069 31.2199 21.8548 31.1145 21.738C31.066 21.6841 31.0068 21.6409 30.9406 21.6111C30.8745 21.5814 30.8029 21.5658 30.7303 21.5653C30.6563 21.565 30.583 21.5802 30.5151 21.61C30.4473 21.6397 30.3864 21.6833 30.3365 21.738C30.2303 21.8543 30.1726 22.0067 30.175 22.1642C30.1724 22.3202 30.2302 22.4712 30.3365 22.5855C30.3863 22.6406 30.447 22.6847 30.5148 22.715C30.5827 22.7453 30.6561 22.7611 30.7303 22.7614C30.8031 22.7604 30.8748 22.7442 30.9409 22.7139C31.0071 22.6836 31.0662 22.6399 31.1145 22.5855C31.22 22.4707 31.2778 22.32 31.2759 22.1642Z" fill="#263238"/>
<path d="M32.0221 22.9049V21.4698C32.0219 21.4523 32.0252 21.4349 32.0317 21.4187C32.0383 21.4024 32.048 21.3876 32.0603 21.3752C32.0726 21.3627 32.0873 21.3528 32.1034 21.3461C32.1196 21.3393 32.137 21.3358 32.1545 21.3358C32.1723 21.3356 32.19 21.3389 32.2065 21.3455C32.223 21.3521 32.2381 21.362 32.2508 21.3744C32.2636 21.3868 32.2737 21.4017 32.2807 21.418C32.2878 21.4344 32.2915 21.452 32.2917 21.4698V22.7612H32.9503C32.9858 22.7625 33.0195 22.7775 33.0442 22.8031C33.0689 22.8287 33.0827 22.8629 33.0827 22.8984C33.0818 22.9333 33.0676 22.9665 33.043 22.9911C33.0183 23.0158 32.9851 23.03 32.9503 23.0308H32.1545C32.1205 23.0308 32.0877 23.0178 32.0631 22.9943C32.0384 22.9709 32.0238 22.9389 32.0221 22.9049Z" fill="#263238"/>
<path d="M34.1186 22.9049V21.4699C34.1186 21.4343 34.1327 21.4002 34.1578 21.3751C34.1829 21.35 34.217 21.3359 34.2526 21.3359H34.598C34.6586 21.3359 34.7185 21.3478 34.7744 21.3711C34.8304 21.3943 34.8811 21.4283 34.9239 21.4712C34.9666 21.5141 35.0005 21.565 35.0235 21.621C35.0465 21.677 35.0583 21.737 35.0581 21.7976C35.0585 21.8972 35.0262 21.9942 34.9661 22.0736C35.0656 22.1317 35.143 22.2213 35.1861 22.3282C35.2292 22.4351 35.2356 22.5533 35.2041 22.6642C35.1727 22.7751 35.1053 22.8724 35.0125 22.9408C34.9198 23.0093 34.8069 23.0449 34.6916 23.0421H34.2526C34.2347 23.0421 34.217 23.0386 34.2005 23.0316C34.1841 23.0247 34.1691 23.0146 34.1567 23.0018C34.1442 22.989 34.1344 22.9738 34.1278 22.9572C34.1213 22.9406 34.1181 22.9228 34.1186 22.9049ZM34.3882 21.9961H34.598C34.6234 21.9957 34.6486 21.9903 34.6719 21.9801C34.6952 21.97 34.7163 21.9554 34.734 21.9371C34.7517 21.9188 34.7656 21.8972 34.775 21.8735C34.7843 21.8499 34.7889 21.8246 34.7885 21.7992C34.7887 21.774 34.7839 21.7491 34.7745 21.7258C34.765 21.7025 34.751 21.6813 34.7333 21.6634C34.7156 21.6456 34.6945 21.6314 34.6713 21.6217C34.6481 21.612 34.6232 21.6071 34.598 21.6071H34.3865L34.3882 21.9961ZM34.3882 22.7677H34.6916C34.7547 22.7627 34.8136 22.734 34.8565 22.6875C34.8995 22.641 34.9233 22.58 34.9233 22.5167C34.9233 22.4534 34.8995 22.3924 34.8565 22.3459C34.8136 22.2994 34.7547 22.2708 34.6916 22.2657H34.3865L34.3882 22.7677Z" fill="#263238"/>
<path d="M36.2676 23.0372C36.1754 23.0374 36.084 23.0194 35.9987 22.9842C35.9134 22.949 35.8359 22.8973 35.7706 22.832C35.7054 22.7668 35.6537 22.6893 35.6185 22.604C35.5832 22.5187 35.5652 22.4273 35.5654 22.335V21.4698C35.5652 21.4521 35.5685 21.4346 35.5752 21.4182C35.5819 21.4019 35.5917 21.387 35.6042 21.3746C35.6167 21.3621 35.6315 21.3522 35.6479 21.3456C35.6642 21.3389 35.6818 21.3356 35.6994 21.3358C35.7351 21.3358 35.7694 21.3499 35.7947 21.3749C35.8201 21.4 35.8346 21.4341 35.835 21.4698V22.3334C35.835 22.4481 35.8806 22.5582 35.9617 22.6393C36.0429 22.7204 36.1529 22.766 36.2676 22.766C36.3824 22.766 36.4924 22.7204 36.5736 22.6393C36.6547 22.5582 36.7003 22.4481 36.7003 22.3334V21.4698C36.7 21.452 36.7034 21.4343 36.7102 21.4179C36.7169 21.4014 36.7269 21.3865 36.7396 21.374C36.7522 21.3615 36.7673 21.3516 36.7838 21.3451C36.8004 21.3385 36.8181 21.3354 36.8359 21.3358C36.8535 21.3356 36.871 21.3389 36.8874 21.3456C36.9037 21.3522 36.9186 21.3621 36.9311 21.3746C36.9436 21.387 36.9534 21.4019 36.9601 21.4182C36.9667 21.4346 36.9701 21.4521 36.9698 21.4698V22.3334C36.9701 22.4258 36.952 22.5172 36.9169 22.6026C36.8817 22.688 36.83 22.7656 36.7647 22.831C36.6995 22.8964 36.622 22.9482 36.5367 22.9836C36.4514 23.019 36.36 23.0372 36.2676 23.0372Z" fill="#263238"/>
<path d="M37.4884 22.6144C37.5101 22.589 37.5408 22.5731 37.5739 22.5701C37.6071 22.5671 37.6402 22.5772 37.666 22.5982C37.7967 22.7081 37.959 22.7736 38.1293 22.7855C38.2379 22.7873 38.3444 22.7558 38.4344 22.6951C38.4645 22.6766 38.4896 22.651 38.5075 22.6207C38.5255 22.5903 38.5359 22.556 38.5377 22.5207C38.5387 22.4934 38.5314 22.4664 38.5167 22.4433C38.4985 22.4137 38.4737 22.3888 38.4441 22.3706C38.3409 22.3118 38.2275 22.273 38.1099 22.256C38.0021 22.2369 37.897 22.2049 37.7968 22.1608C37.705 22.1205 37.6267 22.055 37.5708 21.9719C37.5345 21.9115 37.5155 21.8422 37.5159 21.7717C37.5185 21.7016 37.5373 21.633 37.571 21.5714C37.6046 21.5097 37.652 21.4568 37.7096 21.4166C37.8329 21.3316 37.9796 21.287 38.1293 21.2891C38.3217 21.2994 38.5066 21.3668 38.6604 21.4828C38.6875 21.5014 38.7062 21.53 38.7125 21.5622C38.7189 21.5945 38.7123 21.628 38.6943 21.6555C38.6854 21.6693 38.6739 21.6813 38.6604 21.6907C38.647 21.7 38.6317 21.7066 38.6157 21.7101C38.5996 21.7136 38.583 21.7138 38.5669 21.7108C38.5507 21.7078 38.5353 21.7016 38.5216 21.6926C38.4106 21.5996 38.2736 21.5432 38.1293 21.5312C38.0326 21.5299 37.9378 21.5586 37.8581 21.6135C37.8304 21.6305 37.8074 21.6542 37.7913 21.6824C37.7752 21.7106 37.7665 21.7425 37.7661 21.775C37.7649 21.7986 37.7705 21.8222 37.7822 21.8428C37.8001 21.8682 37.8226 21.8901 37.8484 21.9073C37.9418 21.9621 38.0448 21.9982 38.1519 22.0139C38.2677 22.0335 38.3805 22.0676 38.4877 22.1156C38.586 22.1583 38.67 22.2284 38.7298 22.3174C38.7683 22.3793 38.7885 22.451 38.7879 22.524C38.7857 22.5987 38.7656 22.6718 38.7294 22.7373C38.6931 22.8027 38.6418 22.8585 38.5797 22.9001C38.4479 22.9926 38.2903 23.0412 38.1293 23.0389C37.9012 23.0273 37.683 22.9417 37.5078 22.7952C37.4818 22.7734 37.4652 22.7424 37.4616 22.7087C37.4579 22.675 37.4676 22.6411 37.4884 22.6144Z" fill="#263238"/>
<g opacity="0.2">
<path d="M70.7994 36.0628H70.3814V7.48731H59.7935V36.0628H59.3754V7.06921H70.7994V36.0628Z" fill="black"/>
<path d="M65.2964 7.27911H64.8783V36.0629H65.2964V7.27911Z" fill="black"/>
</g>
<path d="M64.3571 8.05865H60.4022V36.0611H64.3571V8.05865Z" fill="#455A64"/>
<path d="M64.3571 8.05865H60.4022V8.84803H64.3571V8.05865Z" fill="#263238"/>
<path opacity="0.1" d="M60.4025 32.2854L64.3574 28.3305V36.0628H60.4025V32.2854Z" fill="white"/>
<path opacity="0.1" d="M60.4021 23.155L64.357 19.2001V21.8491L60.4021 25.804V23.155Z" fill="white"/>
<path opacity="0.1" d="M60.4022 20.5385L64.3571 16.5836V17.0953L60.4022 21.0502V20.5385Z" fill="white"/>
<path d="M69.8169 8.05859H65.8619V36.0611H69.8169V8.05859Z" fill="#37474F"/>
<path d="M69.8171 8.06018H65.8622V36.0627H69.8171V8.06018Z" fill="#455A64"/>
<path d="M69.8169 8.05859H65.8619V8.84796H69.8169V8.05859Z" fill="#263238"/>
<path opacity="0.1" d="M69.8167 22.8711V31.1635L65.8618 35.1184V26.826L69.8167 22.8711Z" fill="white"/>
<path opacity="0.1" d="M69.8169 13.739V16.3896L65.8619 20.3445V17.6939L69.8169 13.739Z" fill="white"/>
<path opacity="0.1" d="M69.8172 11.1241V11.6358L65.8623 15.5907V15.079L69.8172 11.1241Z" fill="white"/>
<path opacity="0.1" d="M69.8169 32.9728V33.4846L67.2389 36.0625H66.7272L69.8169 32.9728Z" fill="white"/>
<path d="M70.7998 36.0626H59.3757V36.9117H70.7998V36.0626Z" fill="#263238"/>
<path d="M71.3118 36.9101H58.8643V37.7592H71.3118V36.9101Z" fill="#263238"/>
<path d="M3.25164 27.8156H0.286255V32.3678H3.25164V27.8156Z" fill="#263238"/>
<path d="M56.7365 34.1157H2.46362V31.8025H54.3861L56.7365 34.1157Z" fill="#263238"/>
<path d="M103.828 31.8024H85.8948V34.1157H103.828V31.8024Z" fill="#263238"/>
<path d="M104.971 29.4878H84.6827V31.801H104.971V29.4878Z" fill="#C7C7C7"/>
<path d="M29.7733 31.801H15.9343C16.1184 28.5725 18.8803 25.6668 22.6835 25.6668C26.4867 25.6668 29.5909 28.5725 29.7733 31.801Z" fill="#FFC727"/>
<path opacity="0.3" d="M29.7733 31.801H15.9343C16.1184 28.5725 18.8803 25.6668 22.6835 25.6668C26.4867 25.6668 29.5909 28.5725 29.7733 31.801Z" fill="black"/>
<path d="M29.767 33.3491C29.6492 35.8932 27.9607 39.0071 24.2091 39.0943H21.8507V26.9583H24.2172C28.1108 26.9583 29.8945 30.5726 29.767 33.3491Z" fill="#263238"/>
<path d="M27.5296 33.349C27.4101 35.9318 25.6748 39.0957 21.8103 39.0957C17.9458 39.0957 16.1749 35.4378 16.564 32.1544C16.8545 29.7024 18.1992 26.9581 21.9733 26.9581C25.875 26.9581 27.6603 30.5741 27.5296 33.349Z" fill="#37474F"/>
<path d="M25.557 33.2539C25.4666 35.0909 24.2882 37.3428 21.6828 37.3428C19.0774 37.3428 17.9006 34.7406 18.1734 32.4048C18.3768 30.6533 19.2905 28.7049 21.8329 28.7049C24.4642 28.7065 25.6539 31.2812 25.557 33.2539Z" fill="#C7C7C7"/>
<path d="M21.1323 29.1035C21.1872 29.8493 21.3745 32.2255 21.644 32.2255C21.8717 32.2255 22.54 29.9817 22.774 29.1713C22.4754 29.0794 22.1647 29.0331 21.8523 29.0341C21.6106 29.0332 21.3694 29.0564 21.1323 29.1035Z" fill="#263238"/>
<path d="M22.1316 32.3678C22.2753 32.4323 23.5506 31.3605 24.4771 30.5566C24.2596 30.1953 23.9766 29.8778 23.6426 29.6203C23.0421 30.5404 21.9379 32.2854 22.1316 32.3678Z" fill="#263238"/>
<path d="M22.3741 32.6437C22.4386 32.7421 23.8091 32.366 25.0457 31.998C24.9808 31.6932 24.8867 31.3953 24.7648 31.1085C23.6348 31.7445 22.295 32.5242 22.3741 32.6437Z" fill="#263238"/>
<path d="M22.5014 32.9794C22.4885 33.0908 23.8768 33.249 25.1359 33.3701C25.1359 33.3249 25.144 33.2829 25.1456 33.2377C25.158 32.9916 25.1505 32.7449 25.123 32.5C23.8622 32.6566 22.5176 32.8535 22.5014 32.9794Z" fill="#263238"/>
<path d="M24.7435 34.9264C24.888 34.6002 24.9963 34.2591 25.0664 33.9094C23.8589 33.5736 22.4481 33.212 22.3432 33.3282C22.2382 33.4445 23.6894 34.3145 24.7435 34.9264Z" fill="#263238"/>
<path d="M23.2489 36.634C23.696 36.3853 24.0782 36.0347 24.3643 35.6106C23.5879 34.8147 22.2658 33.4991 22.0544 33.5831C21.8429 33.667 22.9099 35.935 23.2489 36.634Z" fill="#263238"/>
<path d="M20.5289 36.7842C20.8943 36.9415 21.2886 37.0207 21.6864 37.0167C21.8483 37.017 22.0101 37.0062 22.1706 36.9844C22.1287 36.3613 21.9382 33.7736 21.6541 33.7736C21.4248 33.7736 20.7743 35.9367 20.5289 36.7842Z" fill="#263238"/>
<path d="M19.0271 35.2732C19.2026 35.6398 19.4421 35.9721 19.7341 36.2547C20.3363 35.3297 21.3064 33.7881 21.1224 33.7042C20.9884 33.6444 19.9101 34.5242 19.0271 35.2732Z" fill="#263238"/>
<path d="M18.6111 33.9089C18.652 34.1857 18.7168 34.4585 18.8048 34.7241C19.7927 34.1639 20.8065 33.5538 20.7419 33.4456C20.6773 33.3374 19.6603 33.6167 18.6111 33.9089Z" fill="#263238"/>
<path d="M18.5675 32.7066C18.5498 32.9581 18.5498 33.2106 18.5675 33.4621C19.6136 33.3297 20.5886 33.178 20.6015 33.0682C20.6144 32.9584 19.6119 32.8293 18.5675 32.7066Z" fill="#263238"/>
<path d="M18.6151 32.227C19.6289 32.5159 20.6426 32.7726 20.733 32.6725C20.8234 32.5724 19.7645 31.8767 18.8395 31.2939C18.7365 31.5975 18.6614 31.9098 18.6151 32.227Z" fill="#263238"/>
<path d="M19.1302 30.6163C19.8793 31.3928 20.9334 32.4372 21.1174 32.3613C21.3014 32.2855 20.4717 30.3338 20.1101 29.517C19.6973 29.7964 19.3605 30.1742 19.1302 30.6163Z" fill="#263238"/>
<path d="M101.072 30.1802H96.4387L96.0868 28.3318H100.718L101.072 30.1802Z" fill="white"/>
<path opacity="0.1" d="M3.29297 5.84535C25.6197 5.5225 48.4711 5.5225 70.7995 5.84535C48.4711 6.1682 25.6197 6.1682 3.29297 5.84535Z" fill="black"/>
<path d="M92.7215 25.3503H88.0031V27.7088H92.7215V25.3503Z" fill="#C7C7C7"/>
<path d="M90.3615 25.3503H88.0031V27.7088H90.3615V25.3503Z" fill="#FFC727"/>
<path opacity="0.5" d="M90.3615 25.3503H88.0031V27.7088H90.3615V25.3503Z" fill="white"/>
<path opacity="0.1" d="M89.9512 26.5306C89.9205 27.5977 88.3676 27.6057 88.3369 26.5306C88.3708 25.4539 89.9253 25.4636 89.9512 26.5306ZM89.9512 26.5306C89.9341 26.3498 89.8502 26.1818 89.7158 26.0596C89.5815 25.9373 89.4064 25.8696 89.2248 25.8696C89.0431 25.8696 88.868 25.9373 88.7336 26.0596C88.5993 26.1818 88.5154 26.3498 88.4983 26.5306C88.5154 26.7115 88.5993 26.8795 88.7336 27.0017C88.868 27.124 89.0431 27.1917 89.2248 27.1917C89.4064 27.1917 89.5815 27.124 89.7158 27.0017C89.8502 26.8795 89.9341 26.7115 89.9512 26.5306Z" fill="black"/>
<path opacity="0.1" d="M92.3092 26.5305C92.2785 27.5975 90.7256 27.6056 90.6949 26.5305C90.7305 25.4538 92.2834 25.4635 92.3092 26.5305ZM92.3092 26.5305C92.2921 26.3497 92.2082 26.1817 92.0739 26.0595C91.9395 25.9372 91.7644 25.8694 91.5828 25.8694C91.4011 25.8694 91.226 25.9372 91.0917 26.0595C90.9574 26.1817 90.8734 26.3497 90.8564 26.5305C90.8734 26.7114 90.9574 26.8793 91.0917 27.0016C91.226 27.1239 91.4011 27.1916 91.5828 27.1916C91.7644 27.1916 91.9395 27.1239 92.0739 27.0016C92.2082 26.8793 92.2921 26.7114 92.3092 26.5305Z" fill="black"/>
<path d="M103.721 25.3503H101.363V27.7088H103.721V25.3503Z" fill="#C7C7C7"/>
<path opacity="0.1" d="M103.316 26.5306C103.285 27.5977 101.731 27.6057 101.702 26.5306C101.737 25.4539 103.292 25.4636 103.316 26.5306ZM103.316 26.5306C103.299 26.3498 103.215 26.1818 103.081 26.0596C102.946 25.9373 102.771 25.8696 102.59 25.8696C102.408 25.8696 102.233 25.9373 102.099 26.0596C101.964 26.1818 101.88 26.3498 101.863 26.5306C101.88 26.7115 101.964 26.8795 102.099 27.0017C102.233 27.124 102.408 27.1917 102.59 27.1917C102.771 27.1917 102.946 27.124 103.081 27.0017C103.215 26.8795 103.299 26.7115 103.316 26.5306Z" fill="black"/>
<path d="M81.0731 19.5667H78.705V20.5045H81.0731V19.5667Z" fill="#263238"/>
<path d="M71.875 18.0687H69.8507V15.318H70.1736V17.7458H71.875V18.0687Z" fill="#263238"/>
<path d="M72.3864 18.8466H71.6536V16.9692H72.3864V18.8466ZM71.9764 18.5237H72.0636V17.292H71.9764V18.5237Z" fill="#263238"/>
<path d="M69.8686 9.68573H71.16V16.4091H69.8686C69.7367 16.4091 69.6062 16.3831 69.4843 16.3327C69.3625 16.2822 69.2518 16.2083 69.1586 16.115C69.0654 16.0218 68.9914 15.9111 68.9409 15.7893C68.8905 15.6675 68.8645 15.5369 68.8645 15.405V10.693C68.8641 10.5609 68.8897 10.43 68.94 10.3078C68.9903 10.1856 69.0642 10.0745 69.1575 9.98095C69.2507 9.88738 69.3616 9.81313 69.4836 9.76247C69.6056 9.71181 69.7364 9.68573 69.8686 9.68573Z" fill="#FFC727"/>
<path opacity="0.1" d="M69.8686 9.68573H71.16V16.4091H69.8686C69.7367 16.4091 69.6062 16.3831 69.4843 16.3327C69.3625 16.2822 69.2518 16.2083 69.1586 16.115C69.0654 16.0218 68.9914 15.9111 68.9409 15.7893C68.8905 15.6675 68.8645 15.5369 68.8645 15.405V10.693C68.8641 10.5609 68.8897 10.43 68.94 10.3078C68.9903 10.1856 69.0642 10.0745 69.1575 9.98095C69.2507 9.88738 69.3616 9.81313 69.4836 9.76247C69.6056 9.71181 69.7364 9.68573 69.8686 9.68573Z" fill="black"/>
<path opacity="0.3" d="M88.0674 6.22983V6.49134H83.7396V1.68732C84.9065 1.74332 86.007 2.24642 86.8129 3.09223C87.6187 3.93803 88.068 5.06161 88.0674 6.22983Z" fill="black"/>
<path opacity="0.3" d="M78.2128 1.68231V6.49118H73.4991V5.12552C73.4991 4.2126 73.8617 3.33705 74.5071 2.69137C75.1524 2.04569 76.0278 1.68274 76.9407 1.68231H78.2128Z" fill="black"/>
<path opacity="0.1" d="M83.7399 1.68722V6.49124H78.2126V1.68237L83.5219 1.68237L83.7399 1.68722Z" fill="black"/>
<path opacity="0.1" d="M88.0673 6.23281V6.4927H88.0431C87.9315 5.41145 87.4359 4.40605 86.6463 3.65905C85.8566 2.91205 84.8253 2.47298 83.7395 2.42155H83.5216H76.9402C76.4882 2.42155 76.0405 2.51062 75.6228 2.68368C75.2052 2.85674 74.8257 3.11039 74.5061 3.43014C74.1865 3.74989 73.933 4.12948 73.7602 4.54722C73.5873 4.96496 73.4984 5.41266 73.4987 5.86476V5.14157C73.4984 4.68948 73.5873 4.24177 73.7602 3.82403C73.933 3.4063 74.1865 3.02671 74.5061 2.70695C74.8257 2.3872 75.2052 2.13355 75.6228 1.96049C76.0405 1.78744 76.4882 1.69836 76.9402 1.69836L83.5216 1.69836C83.5947 1.69836 83.6674 1.69836 83.7395 1.69836C84.905 1.7543 86.0043 2.25627 86.8099 3.10035C87.6156 3.94443 88.0657 5.06598 88.0673 6.23281Z" fill="black"/>
<path d="M78.3983 3.94058C78.4193 3.87117 78.4597 3.86148 78.4855 3.91798C78.5388 4.03421 78.6324 4.16819 78.718 4.16496C78.7517 4.16055 78.7835 4.14712 78.8103 4.12609C78.837 4.10507 78.8575 4.07723 78.8697 4.0455C78.9046 3.9742 78.9223 3.89568 78.9214 3.81628C78.9221 3.7815 78.9183 3.74676 78.9101 3.71297C78.903 3.67964 78.891 3.64755 78.8746 3.61773C78.836 3.55345 78.78 3.50141 78.7131 3.4676C78.6508 3.43792 78.5957 3.39494 78.5517 3.34169C78.4965 3.26816 78.4584 3.18323 78.4403 3.0931C78.42 3.00689 78.4103 2.91853 78.4113 2.82997C78.408 2.66916 78.4411 2.50969 78.5081 2.36345C78.5662 2.2553 78.6389 2.20203 78.718 2.20203C78.8342 2.20203 78.9214 2.35215 78.9827 2.45708C79.0126 2.52915 79.0188 2.60886 79.0005 2.68469C78.9811 2.76217 78.9423 2.78477 78.9133 2.73312C78.8519 2.62335 78.7922 2.52811 78.718 2.52811C78.6878 2.53242 78.6593 2.54471 78.6354 2.56373C78.6116 2.58274 78.5933 2.60779 78.5824 2.63626C78.552 2.69914 78.5365 2.7682 78.5372 2.83804C78.5334 2.86806 78.5334 2.89843 78.5372 2.92844C78.5442 2.9572 78.5551 2.98488 78.5695 3.01077C78.605 3.07201 78.6577 3.12142 78.7212 3.15282C78.7841 3.18515 78.8392 3.23089 78.8826 3.28681C78.9426 3.36469 78.984 3.45523 79.0037 3.55154C79.0241 3.64101 79.0339 3.73259 79.0327 3.82435C79.0369 3.9953 79.0016 4.16489 78.9294 4.31993C78.8697 4.43454 78.7906 4.50234 78.705 4.50234C78.5743 4.50234 78.4629 4.32639 78.3951 4.17949C78.3707 4.10155 78.3718 4.01783 78.3983 3.94058Z" fill="#263238"/>
<path d="M79.1959 3.34475C79.1959 2.71196 79.3993 2.19702 79.6415 2.19379C79.748 2.19379 79.8449 2.2858 79.9207 2.44238C79.9503 2.52477 79.9548 2.6141 79.9336 2.69905C79.9094 2.77976 79.8642 2.79268 79.8368 2.73456C79.7835 2.61834 79.7157 2.55861 79.6415 2.55861C79.5672 2.55861 79.48 2.64739 79.4235 2.78945C79.3617 2.96793 79.3316 3.15588 79.3347 3.34475C79.3311 3.53419 79.3611 3.72277 79.4235 3.90167C79.48 4.04372 79.5575 4.13251 79.6415 4.13251C79.7254 4.13251 79.7819 4.07116 79.8368 3.95655C79.8642 3.90167 79.9094 3.91458 79.9336 3.99207C79.9549 4.07647 79.9504 4.1653 79.9207 4.24712C79.8449 4.40854 79.748 4.49733 79.6415 4.49733C79.3993 4.49733 79.1975 3.98238 79.1959 3.34475Z" fill="#263238"/>
<path d="M80.1687 4.32165V2.43297C80.1687 2.33451 80.1978 2.25702 80.2349 2.25702C80.272 2.25702 80.3027 2.33451 80.3027 2.43297V3.20136H80.6175V2.43297C80.6175 2.33451 80.6465 2.25702 80.6836 2.25702C80.7208 2.25702 80.7514 2.33451 80.7514 2.43297V4.32165C80.7514 4.42012 80.7224 4.49761 80.6836 4.49761C80.6449 4.49761 80.6175 4.42012 80.6175 4.32165V3.55165H80.3027V4.32004C80.3027 4.41851 80.2736 4.49599 80.2349 4.49599C80.1961 4.49599 80.1687 4.42012 80.1687 4.32165Z" fill="#263238"/>
<path d="M81.6621 2.53632C81.8247 3.06213 81.8247 3.62476 81.6621 4.15057C81.5911 4.35881 81.4846 4.49279 81.3732 4.49279C81.2618 4.49279 81.1488 4.35881 81.0762 4.15057C80.9157 3.62445 80.9157 3.06244 81.0762 2.53632C81.1488 2.32485 81.257 2.19409 81.3732 2.19409C81.4894 2.19409 81.5911 2.32485 81.6621 2.53632ZM81.646 3.34344C81.6489 3.15404 81.6211 2.96541 81.5637 2.78491C81.5136 2.63963 81.4458 2.5573 81.3732 2.5573C81.3005 2.5573 81.2279 2.63963 81.1762 2.78491C81.118 2.96523 81.0902 3.15399 81.0939 3.34344C81.0898 3.5324 81.1176 3.72069 81.1762 3.90036C81.2279 4.04403 81.2957 4.1312 81.3732 4.1312C81.4507 4.1312 81.5136 4.04403 81.5637 3.90036C81.6213 3.72102 81.6492 3.53342 81.646 3.34506V3.34344Z" fill="#263238"/>
<path d="M82.6824 2.53607C82.8429 3.06219 82.8429 3.6242 82.6824 4.15033C82.6098 4.35856 82.5032 4.49255 82.3919 4.49255C82.2805 4.49255 82.1691 4.35856 82.0948 4.15033C81.9365 3.62389 81.9365 3.06251 82.0948 2.53607C82.1691 2.3246 82.2756 2.19385 82.3919 2.19385C82.5081 2.19385 82.6098 2.3246 82.6824 2.53607ZM82.6663 3.3432C82.6692 3.15379 82.6414 2.96517 82.5839 2.78467C82.5323 2.63938 82.4645 2.55705 82.3919 2.55705C82.3192 2.55705 82.2466 2.63938 82.1949 2.78467C82.1374 2.96517 82.1096 3.15379 82.1126 3.3432C82.1092 3.5321 82.137 3.72026 82.1949 3.90012C82.2466 4.04378 82.3144 4.13095 82.3919 4.13095C82.4693 4.13095 82.5323 4.04378 82.5839 3.90012C82.6416 3.72078 82.6694 3.53317 82.6663 3.34481V3.3432Z" fill="#263238"/>
<path d="M83.0376 4.32159V2.43291C83.0376 2.33767 83.0666 2.25696 83.1038 2.25696C83.1409 2.25696 83.1732 2.33767 83.1732 2.43291V4.14241H83.496C83.5316 4.14241 83.5622 4.22312 83.5622 4.32159C83.5622 4.42006 83.5316 4.49754 83.496 4.49754H83.0989C83.0667 4.49754 83.0376 4.41683 83.0376 4.32159Z" fill="#263238"/>
<path d="M79.8621 6.13443V4.88661C79.8621 4.82204 79.8927 4.77039 79.9299 4.77039H80.1026C80.2301 4.77039 80.3334 4.95118 80.3334 5.17233C80.3348 5.25526 80.3194 5.33762 80.2882 5.41447C80.3732 5.52342 80.4167 5.65901 80.4109 5.79705C80.4109 6.04888 80.2931 6.25066 80.1494 6.25066H79.9299C79.8927 6.24743 79.8621 6.19577 79.8621 6.13443ZM79.9977 5.34345H80.1026C80.1559 5.34345 80.1978 5.26596 80.1978 5.17233C80.1978 5.07871 80.1559 5.01091 80.1026 5.01091H79.9977V5.34345ZM79.9977 6.01659H80.1494C80.2188 6.01659 80.2753 5.91974 80.2753 5.79705C80.2753 5.67437 80.2188 5.58074 80.1494 5.57913H79.9977V6.01659Z" fill="#263238"/>
<path d="M80.9392 6.24736C80.7439 6.24736 80.5873 5.97294 80.5873 5.63717V4.88332C80.5873 4.81875 80.6163 4.76709 80.6551 4.76709C80.6938 4.76709 80.7229 4.81875 80.7229 4.88332V5.63717C80.7229 5.8438 80.8197 6.01329 80.9392 6.01329C81.0586 6.01329 81.1571 5.8438 81.1571 5.63717V4.88332C81.1571 4.81875 81.1878 4.76709 81.2249 4.76709C81.262 4.76709 81.2911 4.81875 81.2911 4.88332V5.63717C81.2911 5.97294 81.1345 6.24736 80.9392 6.24736Z" fill="#263238"/>
<path d="M81.4378 5.87934C81.4588 5.83414 81.4992 5.82768 81.5266 5.86481C81.5514 5.90688 81.5851 5.94308 81.6252 5.97094C81.6653 5.9988 81.711 6.01767 81.7591 6.02624C81.7886 6.02562 81.8175 6.01833 81.8438 6.00491C81.8701 5.99149 81.893 5.97229 81.9108 5.94875C81.9474 5.90308 81.9663 5.84578 81.9641 5.78733C81.9648 5.7642 81.961 5.74116 81.9528 5.71953C81.9454 5.69598 81.9327 5.67444 81.9156 5.65657C81.8716 5.60989 81.8159 5.57588 81.7542 5.5581C81.6956 5.54057 81.6408 5.51209 81.5928 5.47416C81.541 5.43174 81.5019 5.37589 81.4798 5.31274C81.461 5.2571 81.4518 5.19871 81.4524 5.14001C81.4498 5.02937 81.4838 4.92098 81.5492 4.83169C81.5733 4.79772 81.6049 4.76983 81.6416 4.75022C81.6783 4.7306 81.7191 4.71981 81.7607 4.71869C81.8135 4.7261 81.8642 4.74425 81.9097 4.77201C81.9553 4.79977 81.9946 4.83656 82.0254 4.88011C82.0404 4.90179 82.0499 4.9268 82.0529 4.95297C82.056 4.97914 82.0527 5.00567 82.0432 5.03024C82.0238 5.08028 81.9851 5.09643 81.956 5.06253C81.8947 4.98988 81.8349 4.92693 81.7607 4.92693C81.7339 4.92755 81.7076 4.93427 81.6839 4.94658C81.6601 4.95888 81.6394 4.97646 81.6235 4.99796C81.5933 5.03614 81.5769 5.0833 81.5767 5.13194C81.5761 5.15228 81.5794 5.17255 81.5863 5.19167C81.5933 5.21192 81.6043 5.23058 81.6186 5.24655C81.6604 5.28985 81.7127 5.32156 81.7704 5.33856C81.829 5.35837 81.8837 5.38843 81.9318 5.42735C81.9874 5.47423 82.0297 5.53491 82.0545 5.6033C82.0739 5.66103 82.0837 5.72157 82.0835 5.78248C82.0845 5.89863 82.0476 6.01193 81.9786 6.10534C81.9531 6.14182 81.9193 6.17178 81.88 6.19281C81.8408 6.21384 81.7971 6.22535 81.7526 6.2264C81.6883 6.21614 81.6271 6.19188 81.5733 6.15534C81.5195 6.11879 81.4743 6.07086 81.441 6.01494C81.4315 5.9937 81.4263 5.97075 81.4257 5.94746C81.4252 5.92417 81.4293 5.90101 81.4378 5.87934Z" fill="#263238"/>
<path d="M75.7118 5.08356C75.7118 5.59689 75.4245 6.01337 75.0661 6.01337C74.7077 6.01337 74.4204 5.59689 74.4204 5.08356C74.4204 4.57023 74.7094 4.15375 75.0661 4.15375C75.4229 4.15375 75.7118 4.57023 75.7118 5.08356Z" fill="#FFC727"/>
<path opacity="0.3" d="M75.4634 5.08351C75.4634 5.34986 75.3827 5.72921 75.0615 5.76956C74.5062 5.71468 74.4706 4.77357 74.8435 4.47816C75.2164 4.18275 75.4892 4.76388 75.4634 5.08673V5.08351ZM75.4634 5.08351C75.4344 4.27638 74.7273 4.24409 74.7192 5.08351C74.7112 5.92292 75.4344 5.89063 75.4634 5.08351Z" fill="white"/>
<path d="M87.3877 5.08362C87.3877 5.59695 87.0988 6.01343 86.742 6.01343C86.3853 6.01343 86.0963 5.59695 86.0963 5.08362C86.0963 4.57029 86.3837 4.15381 86.742 4.15381C87.1004 4.15381 87.3877 4.57029 87.3877 5.08362Z" fill="#FFC727"/>
<path opacity="0.3" d="M87.1459 5.08358C87.1459 5.34993 87.0652 5.72928 86.7439 5.76964C86.2597 5.72283 86.1919 5.00448 86.3823 4.65258C86.7439 4.0666 87.1733 4.59769 87.1459 5.08358ZM87.1459 5.08358C87.1168 4.27646 86.4098 4.24417 86.4033 5.08358C86.3969 5.923 87.1184 5.89071 87.1459 5.08358Z" fill="white"/>
<path d="M77.6378 4.88803C77.6378 5.50952 77.2891 6.01801 76.8597 6.01801C76.4303 6.01801 76.0817 5.51437 76.0817 4.88803C76.0817 4.2617 76.4303 3.75806 76.8597 3.75806C77.2891 3.75806 77.6378 4.26816 77.6378 4.88803Z" fill="#FFC727"/>
<path opacity="0.3" d="M77.3455 4.88825C77.3358 5.9924 76.3447 5.96334 76.3124 4.88825C76.3447 3.81477 77.3358 3.78571 77.3455 4.88825ZM77.3455 4.88825C77.3132 3.89387 76.4447 3.86804 76.4334 4.88825C76.4221 5.90846 77.3132 5.88263 77.3455 4.88825Z" fill="white"/>
<path d="M85.7736 4.88803C85.7736 5.50952 85.4249 6.01801 84.9955 6.01801C84.5661 6.01801 84.2174 5.51437 84.2174 4.88803C84.2174 4.2617 84.5661 3.75806 84.9955 3.75806C85.4249 3.75806 85.7736 4.26816 85.7736 4.88803Z" fill="#FFC727"/>
<path opacity="0.3" d="M85.481 4.88812C85.4697 5.99227 84.4802 5.96322 84.4479 4.88812C84.4802 3.81465 85.4713 3.78559 85.481 4.88812ZM85.481 4.88812C85.4487 3.89374 84.5802 3.86792 84.5689 4.88812C84.5576 5.90833 85.4487 5.88251 85.481 4.88812Z" fill="white"/>
</svg>
